<mxfile host="app.diagrams.net" modified="2020-04-05T07:54:07.107Z" agent="5.0 (Windows NT 10.0; Win64; x64) AppleWebKit/537.36 (KHTML, like Gecko) Chrome/80.0.3987.163 Safari/537.36" etag="qnT_X9S_cg7ITQFum2Kl" version="12.9.7" type="github">
  <diagram id="QFLbSSnBuuKTz4KD1fl8" name="Page-1">
    <mxGraphModel dx="981" dy="492" grid="1" gridSize="10" guides="1" tooltips="1" connect="1" arrows="1" fold="1" page="1" pageScale="1" pageWidth="827" pageHeight="1169" math="0" shadow="0">
      <root>
        <mxCell id="0" />
        <mxCell id="1" parent="0" />
        <mxCell id="e5k0GmYDkn366S63yn-u-60" value="" style="rounded=0;whiteSpace=wrap;html=1;strokeColor=#d6b656;fillColor=#fff2cc;fontSize=2;align=center;" parent="1" vertex="1">
          <mxGeometry x="60" y="240" width="470" height="200" as="geometry" />
        </mxCell>
        <mxCell id="e5k0GmYDkn366S63yn-u-37" value="" style="rounded=0;whiteSpace=wrap;html=1;strokeColor=#d6b656;fillColor=#fff2cc;fontSize=2;align=center;" parent="1" vertex="1">
          <mxGeometry x="60" y="40" width="470" height="200" as="geometry" />
        </mxCell>
        <mxCell id="e5k0GmYDkn366S63yn-u-1" value="卷烟客户社会关系网络分析" style="text;html=1;align=center;verticalAlign=middle;whiteSpace=wrap;rounded=0;strokeColor=#000000;" parent="1" vertex="1">
          <mxGeometry x="70" y="43.5" width="20" height="193" as="geometry" />
        </mxCell>
        <mxCell id="e5k0GmYDkn366S63yn-u-2" value="销售部门员工" style="shape=image;html=1;verticalAlign=top;verticalLabelPosition=bottom;labelBackgroundColor=none;imageAspect=0;aspect=fixed;image=https://cdn0.iconfinder.com/data/icons/ikooni-outline-free-basic/128/free-17-128.png;strokeColor=#000000;" parent="1" vertex="1">
          <mxGeometry x="100" y="50" width="70" height="70" as="geometry" />
        </mxCell>
        <mxCell id="e5k0GmYDkn366S63yn-u-3" value="" style="shape=flexArrow;endArrow=classic;html=1;width=14.285714285714286;endSize=10.668571428571429;" parent="1" edge="1">
          <mxGeometry width="50" height="50" relative="1" as="geometry">
            <mxPoint x="170" y="89.5" as="sourcePoint" />
            <mxPoint x="260" y="90" as="targetPoint" />
          </mxGeometry>
        </mxCell>
        <mxCell id="e5k0GmYDkn366S63yn-u-7" value="登入内管系统" style="text;html=1;fontSize=10;" parent="1" vertex="1">
          <mxGeometry x="170" y="50" width="80" height="30" as="geometry" />
        </mxCell>
        <mxCell id="e5k0GmYDkn366S63yn-u-8" value="" style="shape=image;verticalLabelPosition=bottom;labelBackgroundColor=#ffffff;verticalAlign=top;aspect=fixed;imageAspect=0;image=data:image/png,iVBORw0KGgoAAAANSUhEUgAAAIAAAACACAYAAADDPmHLAAAABGdBTUEAALGPC/xhBQAAACBjSFJNAAB6JgAAgIQAAPoAAACA6AAAdTAAAOpgAAA6mAAAF3CculE8AAAABmJLR0QAAAAAAAD5Q7t/AAAACXBIWXMAAAB4AAAAeACd9VpgAAAAB3RJTUUH4wEJBAc0dZBvGAAAFRZJREFUeNrtnXtwXFd9xz/n3Lu72tVKlmRJtmxHfiix8/AjTuo8WmcSk4ZMKCmQDjQwLUObkJRMmQ4tHUrKP7R0yjBtgWEo5VEgwwBJW2ImlCYkkBAyCXGwieNXbMeP+ClbL0srabWPe87pH2dX2tWupJUsae9K+/XIM7v3dfb8vud3fq9zLlRRRRVVVFFFFYsRYiYX3fWhB8vd7iqK4LkffGva10yLAEUEHwRagRYgCshyd8IiQgLoAbqAwdwD0yFCSQQoIvhrgXuAO4CrgSagptT7VTErSAMx4G1gF/BT4BUgmT2hFCJMKbBxwm8BHs78rSp3D1SRh0FgJ/BFYG/ugcmI4Ex2x3HCvwX4OvDnQH25f20VBQgBW4B3AXHgAKAATuz/7YQXTUiAccJ/APgasLncv7KKKbEEeCd2Wn4R8Do23TAhCUox2m4BPgusLPcvq6JkhICPAY+QmeYn8tyKEiDn5Bbgn6kKvxIRAD4N3DnZSVNpgIexln4VlYmlwKNAMxTXAgUEyDnpWiwBqqhs3AF8YKKDk2mAe5iGq2dm+bwqZg0CuA+oLXZwIgIEKVH1m8xNao3CNWZCARsjEMJQG0wTcBTaTBGCcA04psqY2cFmYF2xA+4EF7RiI3yTwgBXpkd4d7yHlSpJv3T5SaSZfcFoXoTJGEFzbZz7tx5gQ2sPQ8kgvzqxmueOdqB0PhFEUOOsTyBa0qBAnwuhToZAV4OMl4Eo1i0swEQEaJnoglw4wLvjPdw10ocSIA006jSfa1hLv3RHSSCE4T0bD/OezYfACBCGtU397O9s5Uz/EqTIDHMDcl0S59p45kKQzR4mLtHng9VA8xxgoikgio3tTwgD1BjFSpVECdAIlBCs8pIsVylMjrSCruLaZd2AsATQkrqaJK3ROCZXxUuQTWkraANowDWIRq/c/bRgISf5ftLxJoAUkn7pIo39LDEMSJcB6ZI7eXtKcmEwOvadMCQ9l1gihMibK8AMO/kPMUB80oh1FZcB93IuTgvBTyLNNOo0q7wkA9LlB9HlXHCCecxSWvL43o00RhJsWn6RoVSQnxzcwOlc9Q9gQB0LI2o0si2FUQL9dgh1rqr+5wqXRQAB7AtG+VzDWparFAPS5YITLDxPGE5fWsLnf7GdVQ0DDCZCnI/VoYzIl6sAMyRJ744i6hUogRl0qp7AHOKyCACWBP3S5ZIMAGbiOUUYYskgBy+0jn4WE91QCUyfO/a5ijnDZRMArIxECcNUYLVByTetYs5RLeFa5KgSYJGjSoBFjioBFjmqBFjkKPACqi734kIBASI1oXK3qYp5RAEBPvon95e7TVXMIZ769lfzPhcQoH1Vtf5zMaGAAFrrcrepinlE1QtY5JiVXIDfYXMQY+UFxoAytogFYxNTUoAUYykInTlvoWPBEkBgBeoZiKUlXSMOnSMOnXGHvqRDXAkSSqANhBxD2DEsCWqWh9XoX2NIEZKZ4qQFSoYFRwAprLD6UpKjAwFe7wtxZCBAT8IKXenJYx2OsIRYEtR0RD02NyW5tiHNiohHQFqtsJC4sGAIIAUklODApSC7uq3Qz8cdklrkTQGyhDRzUgkuxq22+HV3iKaQZn19mq1Lk2xrTtIU0guGCBVPAIFV8/suBXn6bIQ3+oIMe2JU2M4M6wqEGFs63ZuUvNwVYld3iJ/Vedy1Is72ZQnqAqbip4aKJoAU0J+S7DxVy3PnwwymxYRCz47YrBEIGYNP5HwW2eIW8opVBfaeBjgWczk5VM+e3hAfXDvEujpbsVypPKhIAgisFX+oP8gTJ2vZfymIoVDwWePNldBUIwgHoCUsWBmF+pAg7IIjYSQNcQ86hwydw4Z4GvqThhGvcNqQGcK81h3i1JDLfauHuW1ZglrXVCQJKo4AAhhRgidP1fLMuTCxlMxz38AKSAONNbBtueTO1ZJNzZL6EEQDgkjACj73Gm0g4UEsZUh4cKLf8MszmpfOas4OWlU/nggXRxy+dbSe3T0hHlw/SFtEVdyUUFEEEEBKW+E/eaoWZQqNOm1gWa3g7jWSe6+UXLNUUhsYc+NGp4IiRlyNC+GAtR/WNghub5eciRmeP6358VuKQ732ouz0IIXVRL/pCaGM4OENsYojQcUQICv8x0/W8tRpK/zxIzgg4R3tkke2umxsEbgZl9CbRnR7lBiZ+69ZInhgk8M9ayWPHVT86IimN2Hyphsp4Le9Qb56uJ5Hro6xooJIUBGh4Kza/++3rfC9ccI3wFWNgkdvdfmXHQGubxWjdsLlykFnooZtUcHfbnP50p0ud1whbUwgtyMF7OsL8rXD9ZwZdiumqLkiCKAMo2rfKzLy37lG8vW7A3z4OodowJ4/29AZ1b99peQrvx/gY1tdgjI/XCwFvNEX5BtH6oilZUWQwPcEkAIODwR55ly4qNp/R7vkM7e6rKm3Yd1SZZ+17scbkFNBGYgE4KHNDh+/0SUcKCTBgUtBnj0frgivwNcEEFg//4mTtcRSsqjw/+E2lxVRUdKoz8YIjIHBFJwfMpwdNPQlDJ4uPXBkDAQdeHCzw8dvcKlx80mggadOR9h3KVhS5LGc8LUR6BnYecr6+bkdaYC719qR31YrpjS4soGd0zHDMyc1R/oMp2OGnhHr3tUFYVWd4MoGwY52yeZWO8dPdl8DuAI+stFBAF/e45FQY4GkgZTk+8ejtIUHaA0r32YWfUsAKWx497mMKh1N0xpr8H3qZpeVJYx8Iax/v/MtxWP7FccHDEqPRf2yONhjeFbA44cV7+5weHCzw6o6MSUJAhL+9DqH/d2a/z2hRzWIFHBkIMDT58J8uGOo3N05cT+XuwETIaEET5+NMJjOX0EckPChax1W15cm/FgSPr/L4x9f8TjWbxekutKqepnzl/2uPwHfO6j4xPMeh3vNlFOCwcYPHr7epX0cYYSAFzvDnBx0fTsV+JIAWUPqjb581a8N3H6F5H1XOSWpVE/Ddw94/OCQIq1LywSKDCF2X9B84TWPC3GTv4lFEWgD1zUL/myTQ2Dc/hY2kVSDX+FLAmgDu7pDo1k9sEbWslrBI1td6oNTW/tSwE+PK769T+VNIaXClfCrM5p//Y0i4U19vTFw33qH21fJAs20ty9If8qfbqHvCCCASynJkYFAvtUP3L1GsrGlNNXfFTd8Z79iMH0ZK80FPH1C8fI5PaX2MEB9CO6/xsYisk2UAk4PuRzqD/hyGvAdAaSAo5lijmyHGWxi594rJW4JnSiBl85qDvdNPYdPBgEMp+CpY4qkmvp8reF3lku2tMo8WyCpBXt6Qng+9AR8RwDPwOt9IZI5+wJqY7N61yyVJcXYkwpePKNJlSC0KTtIwJ4L1m0sSQsE4V3rrBuZhQDeHAjSl3R8Nw34igACGEwXqn9Xwp2rbVZvKvkLYXP5R/qmFlhJbRLQlzAc7y/tfga4qU2yNCxGDVUpoCshfekN+IsAArpGHHoSzqjlbQw0hgSbmksb/QKIp63qnq2+TivoGSlNfxtgSQgaQ/lkTSnBySHXd+FhfxEA6Byx1buj1j8QDlgDq1RkS79mC9MpCzcGloQE6xryYwIGODvsony28MpXBDBAZ9zJ6ySDLeOKBkRJvr8Bwi4lTRelIpApKSsVQQnrm2RBXWFXwiGhha/sAH8RwEBf0skTnDGwMmozcKUI1BhoCAna60sjTCn3qw8J1jZMnXPIQgi4os7aLrkYSEninp/E7zMCKANxVdhB9SGBM42Whl24uU3OisGlDWxoErTXlU4oAzSFRb4nIGxFU1qLKSOL8wlfEUBjl2vlQmAFOp0+M8COdskV9aWP2okQcKxbV1dC9DG3AUFZ2GZbnuYj6eMzAmCKGFuCaY1+sPfoaBQ8sNkheBk7zSpj3c8/6HBmpcZvto3T2YCvCCCFIeTkd5Extm5/2jBw31UO71rnMJMtD5SBDY2Cv7qxtNxDHkTxsjRHgFvqTqnzBJ8RAMJOYQfFvemvzjVYw/Evb3C4eYVN0JRyD4PNIrZGBJ+8yeXqpulPIwJbcZRXjWzAEQZX+ksL+I4AS4L5w1UIu2InMYN3RmgDa5cIvnCHm1fgUUyg2oDS1n28Z53kX3e47GiXMyowNcC5QUN6nDtbF7DL0P3EAF9VBAlgeVjlJXAE0DlsiKUM4RJjAbnQBq6oEzx6i8sfX2148qjihdOa0zEzmuBxBCyvFdzUJrlvvWTbcknImXl1sdJwvD9/NZEBmkOKsKv9JH9/aQCwBMi1A7Kh3VJy8sXgZBaHXBw2XBg2RFzBslpBMLdwQ0BTjf2LJeHMoCGh7LXTfaYAhlLw1qXCQpIVEa8gNlBu+EoDaCwBlgQ1F+M2H5BN7pzoN6xtECWrT0dASsPeLs1TxzSvnrdr/Ea8zKvucoTraTjQY9jfo/jeQUVzWLCpVfCHHQ7bV0nqg6VvGSOEXV/YFc9/H4IrYE3UQ5J5pbdP4CsC2MSPoiPq0Rl3Rtfnj3jwyzOa29unrqoRAlIKfn5G8/QJxSvnDN2Zsq5s/V8xZL9XBi4MG86fMLx0RrOl1S4uvbdD0hIprQL5cJ+hd2RMAxigKaRZV+f5Sv2DzwgAEJKwuSnJr7vHsj8CW+BxJmZYs2RiIUgBvSOGL+9R/PgtxWDKaoLpxhFEZn1AQsGvz2te69T84pTk0VtcrmuenARpDT87qYmnx56rDXTUpVke9t+aQZ/NSHa0XNuQttuwZBsp4OygXaU7kQZwBJyKGT7zkscP31TEPRuLv5ywa3ZjCLBE+MTzaX5+So/W/hdrw9FLpqCEzBGwdWmKoOMz6eNDAmhjjaX19em80aIN/PgtxfmhwsIMKeBgr+FTL3o8+7b1vWY74OoIONZv+Ptfeex8SxUt70prePKo4uKwyatnWBZWbGlKlrtri8J3BACbft26NJlX/ycFHOo1PHZQ5aWLpYDXL2r++vk0v+mcunjzcuAIWxjy2Vc8/uuwKhjlr5zX7Dyq8rSOBrY0pmjzofoHnxLAGNjWnGRtnZffaQZ+dETzaqceddEGU/Dve9WslYBN2WHCunnf3KfY122fKTLE+MZexaUkecUsEdewrSXpu1Kw0d9T7gYUQ9ZqvmtFPM+AEwJ6E4b/3KcYStvPjx9WvHRGz6t/LTPrDL+026M/aTvx+4c0uzp1XhBLG9jalGJTY8qXox98SgCwWmD7sgQ3Lk3mdZ4j4NXzmu/ut/X6jx1QeSHX+YIj4OVzmh8espHFJw7nq3hjYFmN4r3tw9T40PjLwnduYBbZ2PkH1w5xasjl4sjYOoGUhv94w6MhJLgwPD+qvxiUgW/u8wg6gu54fjtcCe9bHWdDQ9q3ox98rAHAqtB1dR73rR4uqLMfyWzrVs6pVQCxFPSME742cGtrgh1tI75K/BSDrwmQxW3LElzflD8VjN/MsVwY3w5toC2ieP+aYSIVsHeg7wlggFrX8OD6QW5Y6l9jCqzwW2o0D64f5Ipaz9dtzcL3BABLgraI4uENMTY3+ZME2ljP5YH1MbY1+zPoUwwVQQAYU62PXB1ji89IkB35D22IcWtL0ldtmwoVQwDIhokVD20YZEtTavQNIOVuU1tE8RdXx/jd1mTZ2zNd+NYNnAjawKqIxyc3DvDs+TBPnY4wkJqdNQDTgclsQr19WYL3rxmumDl/PCqOAJBZhh3Q/NHqYa6qT/P941G7ongGFTwzebbOBHnetzrOjrYRIm7lvjegIgkAY6r/+qYUbeEBnj4X5sXOML1JO6vNtkbI7kAecQ1bm1K8t32YDQ3p4msZKggVS4AstIHWsOLDHUPc1prg5a4a9vYFOT3kjr4uZqZkyI52R8DyiGJLY4ptLUk2NaaocSp31Oei4gkAY7V6HfUeHfVD3JuUvDkQYE9PiDcHgnQlJCkl8jaLKggimfyVO66wbl1HXZqtS1NsaUrSFlajL6VaCMKHBUKALLJCaQhqfq81yc0tSfqSDicHXU4OuZwddulKOAykJCk9trewI+yijbqAoTmkWBHxWBP1WFfnsTysRit5FpLgs1hQBMjCwOjG0s0hRWuN4qaWJEpDQgvinl2l62mR2fLVrtgJO4awa1PLkrEpYKEJPRcLkgC5yJIBrNqPOIaIU1izn31JRPZtIn4q3Z5LLHgCjEd2MPt18+b5hi8IIOYxrWemkPx8b+BS7nxhWQkghCDtecRHElMKZraeVxuuwXWL7zVsMAx5g3hmBitRZ4CQDBFxastKgrIRQAhBf2yQF17dzdkLXfP23PVr27n9phsJBQMFx17v381Lvc+TNuk51wQGQ51bz47mu1gfvWbefv94lI0AWmte3XuA/UeOzesUsHv/mzQ3NnDjxmtGtY5A0JW6yAs9z9KX6p239vSlevl599OsDLcTdaJl0QRlywam0h6dXd0gBGIe/5RSnL/YnTflCCHoTl4k5g0ghUTM0z8pJMPeMCldvvqBshHAGIMukymujSmwOTzjzYsdMkFvlOm5FVYPMLvwQUGhD7CICVAFVAmw6FElwCJHlQCLHFUCLHJUCbDIsYgJUE0HQhkJUO51fePDvWV7jYMY/a8smIgACWAmWzSXDNd1qauNYGayk/NlYkldtIAASwINBGVwXuPxxhgcHBzhXP7NZoiJkkE9QAyon7MHOw43b9lIfCTBxZ4+tJnbpd52c0jB6pXL2bThyrxj2mhW1KxiW+Ot7Ol/jbROzWFLxhAN1HFL03aiTt18EE+U9OXrh48B1AH/B2yf0xYJQXxkhO5L/XiemnMCBFyXlqZGwjWhInF/gTIeXckLxNXwnItDIGgINLI02DzHTwLsYH4nsGvr1fnkn0gDDAK7mGMCGGOIhGtYE26bH6MgkwQqnvQxOMJhZc0V8zYlG2Pma8p5GzhZ7MBk9QA/BR7CaoM57IRMWZRPivQ0eiE6CM8ARatuCozAHBXxCrCz3C2v4rJxHPjORAcncwOTwBeB0+X+BVXMGAr4CnAY8gb3KIoSIOfEvcA/YclQReXhf4BvT3ZCKYGgx4CvM8dxgSpmHb8EPoU16IuOfpiEADkXJIG/Az4N9Jb7V1UxJRTwBPAR4NRUJ5caCh4B/g24H3iBhWgnLwwcB/4G+Cg5wp9o9EOJHm8mOJRFM/AB4D5gMxAt969e5Ehj/fxnsNb+4dyDkwkfphHyGEcCgFpgHdBU7h5YxBBY7XyScX7+VILPvcG0UIQIVfgIpQq+iiqqqKKKKqpY3Ph/FhJTfpqtS3gAAAAldEVYdGRhdGU6Y3JlYXRlADIwMTktMDEtMDlUMDQ6MDc6NTIrMDg6MDDmJdXEAAAAJXRFWHRkYXRlOm1vZGlmeQAyMDE5LTAxLTA5VDA0OjA3OjUyKzA4OjAwl3hteAAAAEN0RVh0c29mdHdhcmUAL3Vzci9sb2NhbC9pbWFnZW1hZ2ljay9zaGFyZS9kb2MvSW1hZ2VNYWdpY2stNy8vaW5kZXguaHRtbL21eQoAAABjdEVYdHN2Zzpjb21tZW50ACBHZW5lcmF0b3I6IEFkb2JlIElsbHVzdHJhdG9yIDE5LjAuMCwgU1ZHIEV4cG9ydCBQbHVnLUluIC4gU1ZHIFZlcnNpb246IDYuMDAgQnVpbGQgMCkgIM5IkAsAAAAYdEVYdFRodW1iOjpEb2N1bWVudDo6UGFnZXMAMaf/uy8AAAAYdEVYdFRodW1iOjpJbWFnZTo6SGVpZ2h0ADY3NUX13/0AAAAXdEVYdFRodW1iOjpJbWFnZTo6V2lkdGgANjc11gSPoAAAABl0RVh0VGh1bWI6Ok1pbWV0eXBlAGltYWdlL3BuZz+yVk4AAAAXdEVYdFRodW1iOjpNVGltZQAxNTQ2OTc4MDcyLcwqugAAABJ0RVh0VGh1bWI6OlNpemUAMzg5NzBCydxh/AAAAGJ0RVh0VGh1bWI6OlVSSQBmaWxlOi8vL2hvbWUvd3d3cm9vdC9uZXdzaXRlL3d3dy5lYXN5aWNvbi5uZXQvY2RuLWltZy5lYXN5aWNvbi5jbi9maWxlcy8xMjEvMTIxMDEyMy5wbmdtcQiSAAAAAElFTkSuQmCC;" parent="1" vertex="1">
          <mxGeometry x="260.5" y="65.5" width="49" height="49" as="geometry" />
        </mxCell>
        <mxCell id="e5k0GmYDkn366S63yn-u-10" value="" style="shape=flexArrow;endArrow=classic;html=1;width=14.285714285714286;endSize=10.668571428571429;" parent="1" edge="1">
          <mxGeometry width="50" height="50" relative="1" as="geometry">
            <mxPoint x="314.5" y="89" as="sourcePoint" />
            <mxPoint x="420" y="90" as="targetPoint" />
          </mxGeometry>
        </mxCell>
        <mxCell id="e5k0GmYDkn366S63yn-u-11" value="" style="shape=image;verticalLabelPosition=bottom;labelBackgroundColor=#ffffff;verticalAlign=top;aspect=fixed;imageAspect=0;image=data:image/png,iVBORw0KGgoAAAANSUhEUgAAAIAAAACACAYAAADDPmHLAAAABGdBTUEAALGPC/xhBQAAACBjSFJNAAB6JgAAgIQAAPoAAACA6AAAdTAAAOpgAAA6mAAAF3CculE8AAAABmJLR0QA/wD/AP+gvaeTAAAAB3RJTUUH4wEJAyQTa3y7lwAAFshJREFUeNrtnWuMXEeVx3917+3ndM/L44k9YychIQ4iyGywtYCWTbzBaBMJwsp2YBFfIgQsiKCF5QtCCBYkWJAiQlZoEeyK3Q88FwgIASLLBhHxiLJ52HkAiY0Tx2PPox/T3dPv+6jaD7d73B57unu67vT0xP2XWtN9595zz6k6derUqVNVgj4im822/owBNwN/ASTbPQY8ATwDuM2LO3bs6CfrG5FrBDgI7Afi6zyigDTwGPBHQG6VXFY/XyalRAiBEGIX8GngGDABmG0ec4El4KvAvwJFpVRfC6kTXNfFNE2EEK8A/hl4GzAGGG0ec4B54D7g34HKVsgl+vWiTCbT/DoO/IcQ4ugGSUil1H3AJ4EawNTUVL/Y70auq4BvCiEOb5CEo5T6LPBFfKXoq1yGPokN433A3yml2ODHAD4AHAIQom+62w0E8BHgcA9yhYB/Av4S4J577ukr4/1WgARwJ+1NfjuMAO8CQgPWDUwCd2g8PwG8TSklvvKVr/SV8b75AI0KG8U3lTp4Db4i5frFexdyjQO6dvsgEFFK1frJf78tgAVEAqDRqwXZTLl0y9Kijz5Z60s7onDsmPaL7EoFFY+DvulWCKFEoRAIX9py1WqoaFQFIBeYJsaLLwYm19gPftDxnssqQBsGetbQ+tVXq/DCgsDS7nUE9bpYuv569m5Bi1kLZ88eZS0uCkx9oyRyOTF68CDVY8d05VJwaT1eTiEuelH+6FGy2WzrMGQSuB54A/AqfCesN+akVGrPnoT9kY/cTiIx0lsJCUQmkwt96Uv/I5aXawMxFJBSyeuvH3M+9KG/JR6P9SzX+fNL4Xvv/V9qNRc9xVZAGfgD8ChwGsgDmKaJ67qM//CHqzevNsf8UX9Y3ohETQHvbnxeSeegRldCUq1CvY5KJHrrCoRAVCoT2PY7tXgJEkIgymWw7d67OCEQpdJVeN67A+RM4lf8SeC/gP92XTcHfl03lcACyB854j+iFAjxV0qpfwHeSJCjBKUIYuCmGo1eNfndagQkl09KBSmTgW/B3wAcAN4JfByl/g/8Oh9/4AGM3JEjvgCGAUK8DfgW8Nds0hBRNQTt9UPL34FBQwl05NrkuEYI+Bvg2wjxFgwDBeSOHMFi3z44eRLleQfxY+3XbFohBVBxqvXvIChB0wIEwEsfFPt64Kso9ffA4+zbh8HJkwA7gM8D1256eaFnBQbOAjR50pCp+WyfcD1+Xe/g5EmsBvO304ixb3ZBoVl5qxZgUBSAAKxR49k+KvYh4HYB3zKU7yi8D7+f2FQEItrm95dXAkLA+xRMWkqpG/Hj65uLy5jyXmisfl3ze8uw1oz3KJdWufSG1wA3GsA+/Ema7YFB9AFa/24fJIF9llLqKvoxK9jiwOm0FLH6dXAKfJtagBBwlQHspE8x9WZBadMYoMpvVWxdufoMAey0Ghkpm/82pZBSIj1PK6bseh6mlJgBRuC05AI8KZFSasnlOA6WlIj+KkKofwkhgOd51Ot1or2aOikpl0qENAt7M+SybZtIj3IpKalUq0Rburh+weqX6REAjkMxlcLavRvL2HgV2o5DdXmZCdfPDh+ErkAoBfU6K5kMkzt3YvYwQVmv17EzGZCy7zL1rSEpwKjX8ebmyGazeJ7nX+8yRu44DulUCuu55xC2PRDmH/zJKaNaxZmbY3l5ecNy2bZNZmkJ6+RJhOvqsNIT+mYBAITrkjx+nMWrr8ZxHCbGxohEIm2n9aWU1Go1coUC3rlzTJ08GegMXBAwHIfkk0+SmpnBsW3Gx8YIh8Md5apWq+QKBThzhpEzZ4D+W7W+LgxBCOLz80w8/DDLt97KQq2GZZoYbboDT0p/4UU2y9RDDxHN5/2ZywHDyJkzjD3yCPk3vpFKtdpZLs/DdV2sdJqphx4iXCyitkCuvlqAxgsZffZZrFyOlQMHsHftwmuTTiUch8RLL5E8cYJYOo1pGAPR919OrrHHHyeUSvly7dyJ16ZChW2TPH2a5FNPEc3lMLZIrv5aAPwFHSEgPjdHZHERLx5HrZcnqBTCcTArFSzPIxRA3t1mwRCCsFKIF18kev48XizWVi7DcTDLZUwpt1SuvlsA8D3PsGniuS5eodBW84UQmIbhr71jMDz/TnK5joNp213JZTUqf6vk6rsFWC0AwDIMP8G/Q0FtJwgg1Mi42Q5ybYkF2AgGnb/tLtfgudND9BUDbwGG2FxY23Aee4gAYQ2r/8rG0AJc4dB3ApVCSQlSapPa6HvXKq+ScjumZm0ptJ1AEYsR2rkT5bq4S0vQmA3bVJgm5vg4ynGQxaIfMbQsrNlZVK2Gl80OFaFL9O4DKIUxMsLEhz9M9MABlONQ/NGPKD3wgN8SNwtSEr/lFsbe+168xUWyX/gCXjpN7JZbGP/AB/BSKbKf+xxuKuUvSB2iLXr3AZQifugQsVtvRTRi3sm77qJ+4gT2889fOmPXVArDuNR8C3FxZTX/37y25l4vncZdWMCdm0PV/B1VQtdeizk1hYhEEIkELC4O5KzhoKG3ULBSGBMTjLz1rQjLovbYY1izs1gzMyTe/nZy99+PcpzV20U4TPTgQZRtU3/6acypKULXXYc5Oopz7hzOSy8h83m/wpXC3LmT6M03Y58+jSyViO7fD4B96hTO3BzO3ByVX/8ab2EBWa1eHHZtrrJhAHaP2AbozQdQipHDhwlfdx2yVKLwzW8Svflmxu6+m9ib3kTpwQepnzjht0ApCe3dy8RHP4oQgurjjxO+4QaMWAwRjyNME+fsWfL/+Z/UHnsMgOSxYySPHsU9fx7lOFi7doFp4qXTpD/9aaL79zP+wQ/iLS6S+vjH/fsuw+MwyNUZG/cBlMKanmbk9tvBMKg++ij155/HTaWIv/nNhPbuZfTYMTKnTiErFb9FhkKIcBgjHie6fz/5b3yD+smTmJOTjN99N5GbbmLynntIffKTOGfPYoz661Ss2Vkqv/kNua99DSMeh1AIN5XCGB9HWBaicW1tRQeRfn6loCcfIHHHHYSuvhpVr1P5/e8xRkZQnkftxAlCe/cSPXCAyGtfS/V3v/MfaHnHyve/T+kXvwDA/vOfQUp2fvazWLOzhPftwzlzZvV+WSxS+M53qD/7LBiGb9Ib3cQq1luePUirhwYYG7MAUhLas4eRw4f9bU3CYSbe/35oJDOKuL83sohEGH3HO6j/4Q94y8sXVvR6Hs758/4ooeE4uum078iNjCBisYtaryyX8ZaX/XuF8K9LeVHrVi19/uq1Nb+HWB8bswCmSfLOO7FmZlC2TeW3v/XH4S3eujU7S+zAASKvfjWx17+e4s9/vtoShWkSfd3rqD7xhF/pQhDZv983+Z7nj99boFwX5XkdW7Jar/UPLUBHdG8BGq0/fugQANXjx8ncdx+qUlm9RSlFaHaWXV/8ItbMDKNHj1J59NGLKihx++2Yk5NUn3iC8DXXMPKWtyBCIWrHj1P74x/9PYCaCtW6H9CFl1z43rQKl7k2rPru0L0FaETbVK2Gu7RE4bvfRa6sXDLWds6dY+UnP2HsXe/yh4KmeaFPr1YpfO97xA4eZOI970GEw8hqleLPfkb+299etQDOSy8hSyX/b7V6SZ9vnzmDl8vhnD+PLJdR+P6Et7yMu7SELBRW7x2iPcTpQ4e+DPxjVzcbBtbu3QjDuNCXr4VSiHCY0J49yFIJd2mJ6E03seveewFY+NjHcObmsKanEaEQsljEzWRQ9fqqMhnRKNbMDF4+7/sAa/kIhQjNziIrFbx0GiWlf23PHmS1ipdKDYeA3eH+DfkAyvNwzp71f7SJsinb9j38hseulEK03O8VCr71gAtRwBbvXlar2KdOXRohbKV/+vRF/1eOc8m1ITpj45HAbsOrLfe5mQzVp55COQ5uKuUrQ6dK6vSey/1/GPrdMPqSEuamUix95jMgpd+nw7B/HhD0LSPIK5X8L0PzPFDof0bQsOUPFKy+JHAMMbCwjFe9aqt5GGILYSU+9amt5mGILYTVnMAZ4sqEJfudzTvEQGEYObnCsaFIoFIKz/OQW7Cb1RCdIYTANE3MDWw40ZUCKKBaKZPNLlOzbTwFG025VJ6DEEZjdlBHTIVyHYRpNTKMey0t/OQSz0VYoQ3Ls5aWaibFmLpbLiiU6yJMc4Py+XsMmoYgEY+zY8cOQqHOe4B25FYqWMxkKORzkBjDHJ3yNWyDET07NY8RjWONTeidF+B52EvnCO24CiMSQ0cDZL2Km10iPD3rF3jPEDjLKUBgTeodIKqUwl6cwxrfgRlLbEg+pRSeY7NcyFE6e5bZ3buJdXDyrU7bmBRXCuRyeaydM5jx5qlxGy90YRgI0/RbW88KIEC4CGH4SaEhDVpCIBpWSVihRsvVoGWYPntWuHc6+BtPCmEgzI3LJwDCEcxYHCeX5fzCAlfv3Us4HF63y27rBLquSyabxZzYgRlPNK5uZd/fkuujm/Zz0fOaxFQLT/rbYWs+rkAYhCamqBsWhUK+rb/WVgEcx8GWqlH5Q6dvW8EwsEYnWSmWVncvvext6/1DCIHnuShhgDG427MNsQ6UQoRCeFK1XavZPg7QaPTDGdxtCiE6Dm62byAoCKV8WSt2d8J1FwdQCqHtnDQ/mvn6rYtAlU4YW62hFYTzJrTpqLU89Uyv+Xz7u9orgBBIu4a9MEevw78mZL2KrNfwykUNOgKURNZr2OlFf+ilQUtJD1WvYS+eA2Fo0ZJ2rSFnTU8+FLJWxcmmcPPL2vKFpNfWGLRXAKUwLYvo2ITWzpYKqOUymOEo4URSq5VI6VFzHSLJUcxwWKusPdum7rlEx8YxNB3d+koegMjouBYdpRRV1yGcSGJFo1qDL8918FZybWm0VQAFRCyLPePJi9K6e8F8uUB8JMrERLL32A1+bOLcSo6rkiPE4jGdOBDVSpWl8gqzY0ksy9Jqtym7AkIwPTGqF56QkrmVZXYk4iSSCa2yqtdrLBTzbfnpnBWsFAYSodlFChRCKQyNdfsCMJp00KUl1tCSvStA09lWCqGklm+pkI0y15RPiIsOoOopEri68jaAGFAgNLj4jD6dGcm1BzdrtVoV3N6/F3zA4I6h6zkSOMTLH0MFuMIxVIArHB0DQUKI1U+vUEpd9LwOrVZ+dA9dCJqWrmxreQqCXie0VQAhBK7rUigWtRmxHQdRq5Fv7OzZK2TjtK1iuUy9ZSu6nniybVzXZaVYxNA8t6dWrwOQb6567hFKKRzXpVSp4Gom7DqOg1zT+NaiYyTQWV4md/y4thtfn5nBrVSwczl/F5DeSgdlWTizs6z86U8Y1WrvM1VKIWMxnOlpck8/7R/aqEHLmZ4GpfDSab3ZMyFw9uyh+NxzVMtlrbKS4TDqxhvb3tZRAUKZDJM//jHCcbQEy955J9GzZ0k8+WTv5+MphRwZIXPkCGMPPURkfr5nWkJK6jMz5A8fZvKnP8Uol3uWTyhF/tAhUIqxhx/WUiQVCpG56y6SjzxC7IUXtOSzp6YoXHNN2/vaBoKa++8Iz0NomiPR2FFcdLHpU7sCaj4vpATP6/20bSl9Gk35PE+r4pofLTrgb7bdkE+7rBryre7SdhlaRicigWCzdu3QNLUDiRa+gszB6ikSOMTLH0MFuMIxVIArHN0tYwkiYyaI7JvWZ5U/k9fzDN4aWjryNWmJIMupQbfn2cAueemoAMqycMfH/XGyBmQ47I+7x8d7381LKWTjsGkvmcQZG+udlpR4yaQv39gYRiikF1OIRkEp3PFxLQdTWZYv38iIdlm5yWTHYaQ4f/78l7nMRpFCCErlMudeeAGrWtXOn7TDYQwpsTQVSQmBHQ4TchwMzaGpNAycUIiwbfc+nGzAaazDC2lGJxVgRyJYroupuX2PFALGxrj2Fa/AuvxJ5vd3TAmLJBLs3rcPQyMjSAFLi4vEYjHGxse1zKTneSzMzzO1cyfRaFSrgGq1Gpl0mt0zMxtaUXs5ZDIZBLBjSm9toJSShfl5JiYniWtu3mHbNqmlpbb3dDUZFA6FtOcCDCGwTJOwZWklOxiNiZKQZRG+zGER3UIIgee6q7R0FKB5FHyTlg6aE2eWaWrLJz0PIURbGu0jgasZQUFlu6hAMnk2i9ZW09ks+dZ+b0VXdn1QN4MIqnAGCUE2tm4wjANc4RgqwBWOrhRgs7NSeoVuZtEgot98deWySim1hoFwsVMTlMOls8VdKx9BOW+dPO5u0JQpqLLq9HxHBajX68zPz2sJBf6Yu16vU2ruGq4hVK1WI5VKaSullJJarcb8/Lx+ypttr8oZRFllMhlyuZy2fJ0aSUcFsCyLsbEx7QJaXl4mEomQSCS0tFpKieu6JJPJtnvfdIIQAtu28TyPsbExLWUSQpDP5xFCMNo49LJXKKVwHIdEIkE0GtWSz3Ec8vl82/s6KoBpmiSTSe3WViwWiUajJJNJLTqu65LP54nH48RiMS1a1WqVYrFIIpFYL1S6IVqAtgJIKcnn88RiMRKJhBater3OSock1XWlXhtE6Pf4tFu+guJpUHyAIOXrxo9YNxK4VpigmAmC1lp6OjSCkm+z6AwjgVcY+l3Ww0DQFY6hAlzh6Mr1HaS1gUHxtJaPoCJwQa8x3OxoZ0cFcF2XlZWVwAIlQQRvXNelVCpRb6zH6xWO4/jrDItFbb6avBSa5xb3CKUUrutSLpdxNbOnHMfRiwT6u4V62tG7VmZ0vHchBFJKPM+jUqlgmqZeQojnrcpnGIZ2UAmgVCppO3Ku61KtVruqwE7yaSmAUopwOMzu3bu1LcDCwgLxeJzx8XGtAvI8j/n5eaampgJJCUun0+zatUs7JSydTiOEYEozJUwpxblz59ixYwcjIyNaZWXbNouLi23v6cv+AGvpBfF80Gv6g17XHxRfm42Ou4QFGQUMgt7abkTHRAY1Q9msqKCCU0HMUrYqT7uyMrqZUh3UQNCgpIRtRvkEqUjr0ZNSYqznSSulME2zqynFIYJHEF2S4zgIIdYd4dTrdYx2nmYoFMIwjEBGAUP0F57nUSgUSCQSl1WA5rSzUavV7PVauGEYTE5Oks/nKZfLwNamUq19d5BBkpdLellzqJzNZpFSrjv93kiGsa1qtZq2bVvFYrHLSjEyMoLneaTTaUqlEqOjoz3NnTcDODpjW2B1bOu67urYu1e4rrvaEnS7ueaxLI7u0rBG392LfEopbNsmn/fPCZqenl63rmzbVtVqNW3Ztr1QLBadaDQaXk+TR0dHiUQiFAoF0un0JaHdbhiTUuI4zqol0Skgz/PIZrPaLa9Ja2lpSZtWUwF0o5NNnpaXlzcUnWw2KsMwSCQSJJPJdStfKUWxWHRs216wgJPlcrmQTCZ3tsuwiUQiTE9Pr54cOsRgwjTNjopTq9Uol8sF4KQlhDjled4z2Wz2tl27dnU07xs9mnSIwYLrumSzWTzPe0YIccoAcsDXa7Wanclk2h4xNsT2huu6pNNparWaDXwdyDVtxYPAL0ulEktLS9rO1RCDh3q9TiqVavpgv8Sv89W5gDzwCWBfpVK5YWFhgWQyuepI9DM2PYQ+WkO/zen8YrHYnF5+Dr+u83DxZNDTwIeAf3Mc55XLy8sUi0XC4TCRSIRwODzs+7cJPM+jXq9j2zb1er01r+A54B/w6xponHTyq1/9qvX51wGfB24DQs0h37D1by804wmNerPxzf4naKn822677cLWP2uUYBK4A3gv8BpgFAjxMj9q8WUEBThAAXgG3+F7kIbZB7/yYU2FrlEC8BVhH3ADcBUw7AO2BzxgETgJnMIf6a2iWfkA/w+kCWyHC39QiQAAACV0RVh0ZGF0ZTpjcmVhdGUAMjAxOS0wMS0wOVQwMzozNjoxOSswODowMGs7hKMAAAAldEVYdGRhdGU6bW9kaWZ5ADIwMTktMDEtMDlUMDM6MzY6MTkrMDg6MDAaZjwfAAAAQ3RFWHRzb2Z0d2FyZQAvdXNyL2xvY2FsL2ltYWdlbWFnaWNrL3NoYXJlL2RvYy9JbWFnZU1hZ2ljay03Ly9pbmRleC5odG1svbV5CgAAABh0RVh0VGh1bWI6OkRvY3VtZW50OjpQYWdlcwAxp/+7LwAAABh0RVh0VGh1bWI6OkltYWdlOjpIZWlnaHQANTEyj41TgQAAABd0RVh0VGh1bWI6OkltYWdlOjpXaWR0aAA1MTIcfAPcAAAAGXRFWHRUaHVtYjo6TWltZXR5cGUAaW1hZ2UvcG5nP7JWTgAAABd0RVh0VGh1bWI6Ok1UaW1lADE1NDY5NzYxNzlbA+42AAAAEnRFWHRUaHVtYjo6U2l6ZQAxMTE4NkIRtmrSAAAAYnRFWHRUaHVtYjo6VVJJAGZpbGU6Ly8vaG9tZS93d3dyb290L25ld3NpdGUvd3d3LmVhc3lpY29uLm5ldC9jZG4taW1nLmVhc3lpY29uLmNuL2ZpbGVzLzExNy8xMTc2OTM2LnBuZ9/kKygAAAAASUVORK5CYII=;" parent="1" vertex="1">
          <mxGeometry x="430" y="65.5" width="49" height="49" as="geometry" />
        </mxCell>
        <mxCell id="e5k0GmYDkn366S63yn-u-12" value="选择分析日期区间" style="text;html=1;" parent="1" vertex="1">
          <mxGeometry x="315" y="50.5" width="110" height="30" as="geometry" />
        </mxCell>
        <mxCell id="e5k0GmYDkn366S63yn-u-13" value="" style="shape=image;verticalLabelPosition=bottom;labelBackgroundColor=#ffffff;verticalAlign=top;aspect=fixed;imageAspect=0;image=data:image/png,iVBORw0KGgoAAAANSUhEUgAAAIAAAACACAQAAABpN6lAAAAABGdBTUEAALGPC/xhBQAAACBjSFJNAAB6JgAAgIQAAPoAAACA6AAAdTAAAOpgAAA6mAAAF3CculE8AAAAAmJLR0QA/4ePzL8AAAAHdElNRQfjAQkDHTonSq5BAAAIwklEQVR42uWde3BU1R3HP7vZvEjkFSgmBqmmimIYRktCsVU6AuJIbcEpotUyVopFobaCHVudhIRkEOtY4zjo0GKhBdoqwzSOtqUKU6xGlNeU0kgafBBMIQYSAuSxeW7/CFB299zdc+49d++92+/5g2H3d/ec72ez955zz/md60NOoyigkKlMIZdM0kmRPM4p9RKkncPUsIc6Gug0CvTF/ag0xjOdu7iKYaQ67UtZIYKcZDd/4H0a1Q9PpYhf8jkhz5ceanmEsWr2r+QlTjjedH2lnw9ZRLac+RTmctDxJusvQbYyPr79IZRzyvHG2lUOMiO2/aG8QI/jzbSzfMadsb79NfQ53kS7SxPfEtsPUJnk3/750sA0iO4H3MNaLonx8+ikjTME6Ve7oCRYPgJkMSxOz2Uf8/g0HMAEqrnKILybOrbwHo2cpYeQ0x7jKIV0cijgDm7lMsOo37D04v+ms8ngz2WAPcxnjNOuTCiVayjjuIGvdr57cfBsThuErSLPaScW5GMKOwwQHP1fWBbbhCEtLPTgGCBSuWxkQOjvgm6hTfD2Ge6XGDB5QSP5XSwAKWwQvNlPqesHvvLK5z1jAJfxb8GbbzPa6VZr1S2cNAJwGx2Ck9/tTrdYswKsNwJQJfj+dzLM6RZrVxHN4S79AGRwXVToAJs47XR7tauWf4W/MAggmy9EhZ5ir9OttUGd1IgADGVEVGgzTU631hbtDL9BGgAgg7SowBbOOt1WCfnII58ATRylV+qIJtoZEgkg7dy/F6uNPqfdxVU2y7iXS/FzirdYzWGJY7roiX7xy7RGXQO2CP4q3KVUfhF266aW+RJtHkdD9FVAJLcPeOFOFoX1Uyewjhf5otqH+NXCXaQCSqJucWezkGrmCH7QSQcgg1JB3wVgEhuoIj/ZAczn24bvDWMJf+Q2OW/eBDCen118KRNoMhv5now7LwLIpExidmcUFUxKTgALmCMVl8sdyQigkJ+QIRk7hfRkA5BNOQXS0WcZSDYAD/AN6dgBtsUfH3gLwPUsU+ig7+PN+EFeAjCUlYyTjm6jlGPJBWAxsxSi17BdJsw7AIp5RGGCZhdr5IbzXgEwgooYk5yRaqWE43Kh3gDgYynTpaNDVLFTNtgbAG7kYYUZqr+zVn79ghcA5FDBpdLRJyihWf7D3Q/Az6ODi1mkNMCzkTe+vQ5gGg8qtHIH6+J3f70EYAwVChO0xymlRa0CdwNI4TFulI7u4+d8oFqFuwHM4AGF5Rl/ZYP6vWw3A8hjJSOloxtZQZt6Je4FEOBxiqWje1nFPjPVuBfA7SxQiH6dzeaqcSuAsZQxXDr6COWcSSYAqTzJ9dLRPVTyT7NVuRPAHL6jEL2VV8xX5UYAV1ASc8F2uD6ikvZkApBOCROlo4Os5EMr1bkPwDzuUoj+PVutVec2AFfzJFnS0XWsNk6J9CKATFZwjXR0J2XUW63SXQDuZa5C9G95zXqVbgIwgcfJlI4+yDMEkwlAFuV8STq6nRV8oqNahdU0BhrLzUygkZ3UW0qlul9mMvuC1vEnHfbPS7RM7lWJWTg/CzhEDyH6aaRU4fwdqUl8qpDyto/LTdcUsUzOCgA/S8ISbHupkk1NjtAlvKZg/zSzTdvXCMDPw1FJNmYRLFdK1lxtKYdJEwA/DwlzjMwgmMxRBfvvK0yR2QbAz2LD7HJVBMP5i4L9VmZasq8FgI8fxEyuV0PwBL3S9gcot5zEZRlAPPtqCKZyTOH7f0dD9qplAAultlaQQzCS7Qr2T/B1y/YtA5hMo2Rz4yPwUa6wU0E/T2jpt1oC4OdXCt9YPAQ3K+1Ps4NRGuwr5AuINIRrFaIDLKHSEMFoKgWpWkb6nBJOagEQIXsHQ8YI/Cznq9Kf088z7LKniWoAOqnVhGA631eo+y3WY2sGi/xJ8AalXpvRuSCXXQrH/4cijV4tXwbvESQgqyEI8JxBLr/42KUyvhIHwMd9FhHMVtqkqVpzBrOWrrAVBPnsVTiqQWGKLGEAzCN4jhzWKBzRzYOa7WsbDptD0M2bwkG0UXlFYYrMJACz9wRDbAaqyFE6Kk1pMPsJFfbnL5vvCIXYzI9V12QpqJuKyFx/dwGwG8GrbLHfvtWusH0I6llFh/sB2IWgizLqEmFfx2DIDgSbqE6MfT2jQd0IanmaLi8B0IuggxV8nCj7+u4HhNjMo1oQrOeNxNnXeUMkxCYNCA7wLN3eBKADwVlKOJJI+7pviVlFsJZtibWv/56gFQR7eV5yLyAXAzCPoI0SM/u/uw+AOQQh2VRXLwAwg0A61dUbAFQRtMinunoFgAqCEM/ztjP27Z0ZkkWglOrqJQByCJrVUl29BSA+AuVU18QB0LWdcmwE23lZLdXVHgB9gkZkaEXwI+EGnbU8ZuNtVbEColVG19IUdU/+XZOLHo00g930h9Wwh68k2DxAYcTGugBcIZjzPaSQsy+nPJawi2baaaNeaUcYnZoZsYU0ADn8IwpACzfYUP1IJnITxYx1bMv2p8J9Ds4MdQguRCMoYr/26ltpdcj4oLKYGv7C4EkwyMGoUB/3CXYb9romUih+YybtUT+CTr7pdHs1K5WNUS7PKY9DgtnZGu0nQmc1SzALfk5+XhYAGLC4NN1dGsdugccLmiagE6KDxS7KK7Ki0WwVrkG4oEzeEAa08UPX7zEdX/lsifeQFbjVYPFSBy+qPqrQVfLzNd41WIMSlnmWJngAxflygEWM8eDzZtK4jhcM1ySf4e5wS1dTbbgauId63uF1PvLQo7aKmU1RjBSbl1ge+Z3O5dcxt67o4pSHHrY2PGZe5AfM47Nocj8lqLTyy6vl48FOceTYOMResilOkkufsY6xmL+JAEAfNaRSpCGp1r06wkP8OVZABstMLIP0StnPTfEZ+ZnFfsebqr90sYErZf9QLuepyOcyebr0c4C71RK8A8n/6O3/+4evy3ZuR1FAIVOZQi6ZpLv+KYS9BGnnMDXsoY4G471m/gsefM7nnAqT8QAAACV0RVh0ZGF0ZTpjcmVhdGUAMjAxOS0wMS0wOVQwMzoyOTo1OCswODowMHmDBaAAAAAldEVYdGRhdGU6bW9kaWZ5ADIwMTktMDEtMDlUMDM6Mjk6NTgrMDg6MDAI3r0cAAAAQ3RFWHRzb2Z0d2FyZQAvdXNyL2xvY2FsL2ltYWdlbWFnaWNrL3NoYXJlL2RvYy9JbWFnZU1hZ2ljay03Ly9pbmRleC5odG1svbV5CgAAABh0RVh0VGh1bWI6OkRvY3VtZW50OjpQYWdlcwAxp/+7LwAAABh0RVh0VGh1bWI6OkltYWdlOjpIZWlnaHQANTEyj41TgQAAABd0RVh0VGh1bWI6OkltYWdlOjpXaWR0aAA1MTIcfAPcAAAAGXRFWHRUaHVtYjo6TWltZXR5cGUAaW1hZ2UvcG5nP7JWTgAAABd0RVh0VGh1bWI6Ok1UaW1lADE1NDY5NzU3OTikvyByAAAAEXRFWHRUaHVtYjo6U2l6ZQA3NTMwQiQcdwsAAABidEVYdFRodW1iOjpVUkkAZmlsZTovLy9ob21lL3d3d3Jvb3QvbmV3c2l0ZS93d3cuZWFzeWljb24ubmV0L2Nkbi1pbWcuZWFzeWljb24uY24vZmlsZXMvMTE3LzExNzAyNTQucG5ntxXGKAAAAABJRU5ErkJggg==;" parent="1" vertex="1">
          <mxGeometry x="398" y="210" width="18" height="18" as="geometry" />
        </mxCell>
        <mxCell id="e5k0GmYDkn366S63yn-u-16" value="" style="shape=image;verticalLabelPosition=bottom;labelBackgroundColor=#ffffff;verticalAlign=top;aspect=fixed;imageAspect=0;image=data:image/png,iVBORw0KGgoAAAANSUhEUgAAAIAAAACACAQAAABpN6lAAAAABGdBTUEAALGPC/xhBQAAACBjSFJNAAB6JgAAgIQAAPoAAACA6AAAdTAAAOpgAAA6mAAAF3CculE8AAAAAmJLR0QA/4ePzL8AAAAHdElNRQfjAQkDHgDKayQwAAAEnElEQVR42u2dz2uTdxzHX3nSLTaMNhkOD8OE4FYwotCDmCIbnrzlIh5We5hMUFAvwg6KQgdCEa/+AR6lzoE9bYJ2B4VadthhtGzTmLQreJjUplvXJD5tdgglnc/3SZqa8G6efV/fUz7fbx7en/f3x/Mkh+cTohkxUqTJMESCKBF6mn5Di0uZFQpMMc0seZYbDw816HP4hM8Y5gBxIuq8tkGZRX7hDo95QbXVL4dIM8Yca1S7vLnkGWWg4VR72MN1/pBLb2crcJXdW03/KE9Yl0tu/0r4kSPNkw9zlgW52E61OU7hNEr/PS6zLJfZyfaai/73sTCX+UcusdPtL877rYKzAZ/9+ioY3ny7qx9943zcYHuUKFJkFbeV24mAHnrpJ9bwyWWek/z0XwP28B1HfYavkeM+k8yzRIV1dYZNcIgQI8lxsqR8j7xJvuDP+scQ131vfL9yjr2tPUbsCBySXOSZT1ZrXNo8OO3z2FPhNp+qM3kn9jOOa8ytQLru1ZhxyCrX+ECdwTvTxw1KxvzGNjbIAHPG2b/G+2r1bWEXN3ljyHCOgdqAM8afPLcDMPsb9HHPeA6cAYjx0Hj0dffef5s0zw1ZPiQGg7z0dLicUytuO1cM6/wlgzBiOCJ+Y69ab9tJ8rsnzxIjDhnDM9N9FtR6284CTz2xCBmHIU+4xCQt/4W041ljgrInOuSQ8ASLzKvVdoQZljyxhEPUYMBS86t1IUWKnljUMZwAq1TUWjtChVVPLOIY/h9xd/wvvu2xbvgp3+Ns40KBwhqgFqDGGqAWoMYaoBagxhqgFqDGGqAWoMYaoBagxhqgFqDGGqAWoMYaoBagxhqgFqDGGqAWoMYaoBagxhqgFqDGGqAWoMYaoBagxhqgFqDGGqAWoMYaoBagxhqgFqDGGqAWoMYaoBagxhqgFqDGGqAWoMYaoBagxhqgFqDGGqAWoMYaoBagxhqgFqDGGqAWoMYaoBagxhqgFqDGGqAWoMYaoBagxhqgFqDGGqAWoMYaoBagxhqgFqDGGqAWoMYaoBagxjG9Yy+gthjfnegYXjTa25VVhZoTodcTKzuseIL9xNRaO0KMfk9sxaFgGJhUa+0Ih4h7YgWHKU8wwvEAngJhsoa35U85TBtOgWwAX62dIOOJlZl2mGXR05Eiq9bbdr4k5YktMgt9PDC8eP4Z+9WK28pBCoYsH9AHcNpYhWO81hkI4kwYMnQ5XeveR97YfYNdauVtIcot4xTn2VcbEGLUWISkxM0ArII4t6gY8xutFw8aMO6QKm+4Vy9G05UcZMKnzE5uo8QKQIirPsOqPOcKScLqTFomTIpvfCa2isuFjdRr7OZbjvlcap0cT5lghmLXlNo6RJYMKd8KWT8wUrv91wcc4a6h2EKdMktdVGwt3rBG0gtO8rM3fIrXPgsmWO0VJ+pJb97bM/zN5wGpLuXPMl9zx6+zh/MBXwWv+Krxge4wbKw8FoyW48RWCgce5lEACi6/3Vy+Z3Cr++QjLvneQbuz5bjAh60dFkErve3D/774evMjIUaKNBmGSBAl4l+2eIfgUmaFAlNMM0ue5cbD/wXo/EnrGItXcAAAACV0RVh0ZGF0ZTpjcmVhdGUAMjAxOS0wMS0wOVQwMzozMDowMCswODowMD8XsakAAAAldEVYdGRhdGU6bW9kaWZ5ADIwMTktMDEtMDlUMDM6MzA6MDArMDg6MDBOSgkVAAAAQ3RFWHRzb2Z0d2FyZQAvdXNyL2xvY2FsL2ltYWdlbWFnaWNrL3NoYXJlL2RvYy9JbWFnZU1hZ2ljay03Ly9pbmRleC5odG1svbV5CgAAABh0RVh0VGh1bWI6OkRvY3VtZW50OjpQYWdlcwAxp/+7LwAAABh0RVh0VGh1bWI6OkltYWdlOjpIZWlnaHQANTEyj41TgQAAABd0RVh0VGh1bWI6OkltYWdlOjpXaWR0aAA1MTIcfAPcAAAAGXRFWHRUaHVtYjo6TWltZXR5cGUAaW1hZ2UvcG5nP7JWTgAAABd0RVh0VGh1bWI6Ok1UaW1lADE1NDY5NzU4MDBw+lQ0AAAAEXRFWHRUaHVtYjo6U2l6ZQA0MDMxQk15zKgAAABidEVYdFRodW1iOjpVUkkAZmlsZTovLy9ob21lL3d3d3Jvb3QvbmV3c2l0ZS93d3cuZWFzeWljb24ubmV0L2Nkbi1pbWcuZWFzeWljb24uY24vZmlsZXMvMTE3LzExNzAzMDEucG5niU/TXwAAAABJRU5ErkJggg==;" parent="1" vertex="1">
          <mxGeometry x="478" y="210" width="18" height="18" as="geometry" />
        </mxCell>
        <mxCell id="e5k0GmYDkn366S63yn-u-20" value="ip" style="rounded=0;whiteSpace=wrap;html=1;strokeColor=none;fontSize=6;fillColor=none;align=center;verticalAlign=bottom;" parent="1" vertex="1">
          <mxGeometry x="399" y="200" width="16" height="10" as="geometry" />
        </mxCell>
        <mxCell id="e5k0GmYDkn366S63yn-u-22" value="&lt;font style=&quot;font-size: 12px&quot;&gt;标识&lt;/font&gt;" style="rounded=0;whiteSpace=wrap;html=1;strokeColor=none;fontSize=6;fillColor=none;align=center;verticalAlign=bottom;" parent="1" vertex="1">
          <mxGeometry x="428.5" y="200" width="36" height="10" as="geometry" />
        </mxCell>
        <mxCell id="e5k0GmYDkn366S63yn-u-23" value="" style="shape=image;verticalLabelPosition=bottom;labelBackgroundColor=#ffffff;verticalAlign=top;aspect=fixed;imageAspect=0;image=data:image/png,iVBORw0KGgoAAAANSUhEUgAAAIAAAACACAQAAABpN6lAAAAABGdBTUEAALGPC/xhBQAAACBjSFJNAAB6JgAAgIQAAPoAAACA6AAAdTAAAOpgAAA6mAAAF3CculE8AAAAAmJLR0QA/4ePzL8AAAAHdElNRQfjAQkDHgDKayQwAAAEnElEQVR42u2dz2uTdxzHX3nSLTaMNhkOD8OE4FYwotCDmCIbnrzlIh5We5hMUFAvwg6KQgdCEa/+AR6lzoE9bYJ2B4VadthhtGzTmLQreJjUplvXJD5tdgglnc/3SZqa8G6efV/fUz7fbx7en/f3x/Mkh+cTohkxUqTJMESCKBF6mn5Di0uZFQpMMc0seZYbDw816HP4hM8Y5gBxIuq8tkGZRX7hDo95QbXVL4dIM8Yca1S7vLnkGWWg4VR72MN1/pBLb2crcJXdW03/KE9Yl0tu/0r4kSPNkw9zlgW52E61OU7hNEr/PS6zLJfZyfaai/73sTCX+UcusdPtL877rYKzAZ/9+ioY3ny7qx9943zcYHuUKFJkFbeV24mAHnrpJ9bwyWWek/z0XwP28B1HfYavkeM+k8yzRIV1dYZNcIgQI8lxsqR8j7xJvuDP+scQ131vfL9yjr2tPUbsCBySXOSZT1ZrXNo8OO3z2FPhNp+qM3kn9jOOa8ytQLru1ZhxyCrX+ECdwTvTxw1KxvzGNjbIAHPG2b/G+2r1bWEXN3ljyHCOgdqAM8afPLcDMPsb9HHPeA6cAYjx0Hj0dffef5s0zw1ZPiQGg7z0dLicUytuO1cM6/wlgzBiOCJ+Y69ab9tJ8rsnzxIjDhnDM9N9FtR6284CTz2xCBmHIU+4xCQt/4W041ljgrInOuSQ8ASLzKvVdoQZljyxhEPUYMBS86t1IUWKnljUMZwAq1TUWjtChVVPLOIY/h9xd/wvvu2xbvgp3+Ns40KBwhqgFqDGGqAWoMYaoBagxhqgFqDGGqAWoMYaoBagxhqgFqDGGqAWoMYaoBagxhqgFqDGGqAWoMYaoBagxhqgFqDGGqAWoMYaoBagxhqgFqDGGqAWoMYaoBagxhqgFqDGGqAWoMYaoBagxhqgFqDGGqAWoMYaoBagxhqgFqDGGqAWoMYaoBagxhqgFqDGGqAWoMYaoBagxhqgFqDGGqAWoMYaoBagxhqgFqDGGqAWoMYaoBagxhqgFqDGGqAWoMYaoBagxjG9Yy+gthjfnegYXjTa25VVhZoTodcTKzuseIL9xNRaO0KMfk9sxaFgGJhUa+0Ih4h7YgWHKU8wwvEAngJhsoa35U85TBtOgWwAX62dIOOJlZl2mGXR05Eiq9bbdr4k5YktMgt9PDC8eP4Z+9WK28pBCoYsH9AHcNpYhWO81hkI4kwYMnQ5XeveR97YfYNdauVtIcot4xTn2VcbEGLUWISkxM0ArII4t6gY8xutFw8aMO6QKm+4Vy9G05UcZMKnzE5uo8QKQIirPsOqPOcKScLqTFomTIpvfCa2isuFjdRr7OZbjvlcap0cT5lghmLXlNo6RJYMKd8KWT8wUrv91wcc4a6h2EKdMktdVGwt3rBG0gtO8rM3fIrXPgsmWO0VJ+pJb97bM/zN5wGpLuXPMl9zx6+zh/MBXwWv+Krxge4wbKw8FoyW48RWCgce5lEACi6/3Vy+Z3Cr++QjLvneQbuz5bjAh60dFkErve3D/774evMjIUaKNBmGSBAl4l+2eIfgUmaFAlNMM0ue5cbD/wXo/EnrGItXcAAAACV0RVh0ZGF0ZTpjcmVhdGUAMjAxOS0wMS0wOVQwMzozMDowMCswODowMD8XsakAAAAldEVYdGRhdGU6bW9kaWZ5ADIwMTktMDEtMDlUMDM6MzA6MDArMDg6MDBOSgkVAAAAQ3RFWHRzb2Z0d2FyZQAvdXNyL2xvY2FsL2ltYWdlbWFnaWNrL3NoYXJlL2RvYy9JbWFnZU1hZ2ljay03Ly9pbmRleC5odG1svbV5CgAAABh0RVh0VGh1bWI6OkRvY3VtZW50OjpQYWdlcwAxp/+7LwAAABh0RVh0VGh1bWI6OkltYWdlOjpIZWlnaHQANTEyj41TgQAAABd0RVh0VGh1bWI6OkltYWdlOjpXaWR0aAA1MTIcfAPcAAAAGXRFWHRUaHVtYjo6TWltZXR5cGUAaW1hZ2UvcG5nP7JWTgAAABd0RVh0VGh1bWI6Ok1UaW1lADE1NDY5NzU4MDBw+lQ0AAAAEXRFWHRUaHVtYjo6U2l6ZQA0MDMxQk15zKgAAABidEVYdFRodW1iOjpVUkkAZmlsZTovLy9ob21lL3d3d3Jvb3QvbmV3c2l0ZS93d3cuZWFzeWljb24ubmV0L2Nkbi1pbWcuZWFzeWljb24uY24vZmlsZXMvMTE3LzExNzAzMDEucG5niU/TXwAAAABJRU5ErkJggg==;" parent="1" vertex="1">
          <mxGeometry x="437.5" y="210" width="18" height="18" as="geometry" />
        </mxCell>
        <mxCell id="e5k0GmYDkn366S63yn-u-25" value="&lt;font style=&quot;font-size: 12px&quot;&gt;其他维度&lt;/font&gt;" style="rounded=0;whiteSpace=wrap;html=1;strokeColor=none;fontSize=6;fillColor=none;align=center;verticalAlign=bottom;" parent="1" vertex="1">
          <mxGeometry x="452" y="200" width="70" height="10" as="geometry" />
        </mxCell>
        <mxCell id="e5k0GmYDkn366S63yn-u-27" value="" style="rounded=0;whiteSpace=wrap;html=1;strokeColor=#000000;fillColor=none;fontSize=2;align=center;" parent="1" vertex="1">
          <mxGeometry x="390" y="190" width="129" height="40" as="geometry" />
        </mxCell>
        <mxCell id="e5k0GmYDkn366S63yn-u-28" value="" style="shape=flexArrow;endArrow=classic;html=1;width=14.285714285714286;endSize=10.668571428571429;" parent="1" edge="1">
          <mxGeometry width="50" height="50" relative="1" as="geometry">
            <mxPoint x="454" y="115" as="sourcePoint" />
            <mxPoint x="454" y="185" as="targetPoint" />
          </mxGeometry>
        </mxCell>
        <mxCell id="e5k0GmYDkn366S63yn-u-29" value="选择&lt;br&gt;分析&lt;br&gt;维度" style="text;html=1;" parent="1" vertex="1">
          <mxGeometry x="479" y="120" width="41" height="55" as="geometry" />
        </mxCell>
        <mxCell id="e5k0GmYDkn366S63yn-u-30" value="" style="shape=image;verticalLabelPosition=bottom;labelBackgroundColor=#ffffff;verticalAlign=top;aspect=fixed;imageAspect=0;image=data:image/png,iVBORw0KGgoAAAANSUhEUgAAAIAAAACACAYAAADDPmHLAAAABGdBTUEAALGPC/xhBQAAACBjSFJNAAB6JgAAgIQAAPoAAACA6AAAdTAAAOpgAAA6mAAAF3CculE8AAAABmJLR0QAAAAAAAD5Q7t/AAAACXBIWXMAAOpgAADqYAGEyd52AAAAB3RJTUUH4wEJBAk7e6xfBwAAJAhJREFUeNrtfXmQHcd53+/rmXnH3rvYxbHALoDFjQXA2zwAHjpCkRRFSUmRFZWTWJYsS1ZVrMSVlEupRIWorMiuJGVHceyUorLiyGaVpESnKcqCZJGUSAKkeIE4iIPESRALYhcEFljsvpnpL3/Mm3lzdL/X894uAIH4ULt426+n++vv+7r7u7oHuAbX4Bpcg2twDa7BuxHociNwpcFDf/Y5sOtDtBdBAApkgwUw7VVgkcD3PvtfLzeKswr25UbgcsM9W7dC2AIDfTMg4QOWgC0sHD530uktdPSC0EegGSI6RkTe5cZ3tuFdIQCD374Pt41fB4sIFhFssiCEBRAgJeOVFwcw0He8H8ByAoalLxcPtc9f5rO/BsxrPd/7hee6f8DCmrjcY5ltuOoE4OFvbcVvPbIVf/vVfwdmCRIC9qSN4Xnz8PLJw4W2QqHokF3y/MogC1oHyRs23nBsBUCLJdMCX/oDru/3er6HabeCGa8Cz5fPexVXkhCXe3izDleFAPz7p/8GO199CeVCEWLSxbe+9gVMTp212pzigCAxANC8o+fGh3vK7aMA1knmVQwa8HxZ8nyv5HqeVfFdzPguKp4LX0owM6SUkGBAgqXrAdcE4PLAp/7qi3hnehJOoQAigiNsFBwHn7n3k/ij//tfxNH9+6loOZ2CxGrBWAFBS+Z19CyXzMsYPOxLf4nne90V34Pruaj4Hjzpw/M9VHwPUkoAAIOjPpmDvwgEpvDT1QdXpAA8/D/+LQDAKhXgWBY8Ygz0DuDExFixXCh2wEK54nt9f/Z3f7Gxs9R+PREtb3NKw76U8xmyu+K7nTOea814FbieC9f34bMPX8podoMI4BjDY8zPAl+VzAcukwB8/OtbAQCe78GybVjCgrQAf8aFAEEIga//+Z/TI5/51ADASwEsmKnMzO9t7x5lyFECLfdZLvRYljzfsz3fFxXfxYznwvVdeFJCSg4YjSyTiaj6txrYWDB+/eGSCMDHv74VNgMzAiBiWBAoOA6GF67ECwd32x2FklVwHKci5DJibBJCrPrUv/rckM88zMzDLHlBRbo9M16wR7syXMJ9uNUlPLl86zAh4CpnaF6YEwF4+FtbwQR0T1vwWcImC47t4MjbJ6yBzo4+R4heAF2H3jyyvKfcfhOAUfZ5mWWJXl/Kzhmv0u76vlXxPYTLuGSGLyUkV5ndDB85ucerq8TLr35haVoAPvH1/whZJFgeQZCAY9uwraA5nyV2dbyDnml7gIBlAIbAPLiif9FSX8o1BF7tSn/Qk36b63vC9T1yfa86o13M+F6NEdX/GTXmECg547Wz34TJ+mX+6me/oQDc/5V/if/+sc/jS499FZbjQFQ18YXledh96vVCuVAuOoTijO8u8aUcJWDN+rOdK2HTkMXWfCll/7RX6XV9jyqeh4rvwvN9+NWl3K8u4QFjkWE+oF+89Xt0iskGMz75WdvUVQVaAfidR7+Miu+iYFuwIPDffv4oXju6X6wdWbeAIAZA6B2bmRjq6+i+gYHVYIwIYIHPXPakX5x2faviuaj4LlwvYLRkrppXXCVwnMH19ewEP7TMbDxgNqmk7PvqtAMyAvC7j/4nSEgqWLYgoJ2IVwvQSmZecvPaG5cyYyWDl7KUi1zpdbu+RxXfg+d7cGWglHm+B8mc4IiME55rM7oZhpiAmcA0nv1zhd+VAhkBKNkFABgB6D/bTnGJZH9AStlT8d0O1/dst7qEx23rmhZOLREsuX2zslxnohnN/ktP3yseMgIwVZkBCPOk5A+70hMVL3SP+mBGdfnmiPhJxSwGBgycK46kPXrKOho8dNUh2UPJwvVf/mfasaXbrdHIDDedQGufaURjCj5TrN7BL34v0WdGAMbOnwmWZ2YJQOiImNbEW4XcwqOuPrsQtcu3oU18FRbN4NdLGZAA9gP4Jgs6JFyZqZBVArmBUzQyyzgl7ck26j1be6aV7SI7uxJtsh4/HR76trCcPbmciACh538rHsS825lhowDgM9FGYv4c23Q6XWXOw1t6I81kj9eVz+bKww3LGQx4ElzxASlj5fnabBW/XMt/7VkLhAeYaAlTVngb+gGM9lPts5cWTBw6TSmRoe7j+QBLUMEKgknx9mMOq8RvRqY87LvWZ6hCh5aRZkTR6pz0hGZWX0oZ1YwOAAXV0C5ZMEhLeG0dTTuXQKwSfTCjYNsoFcoRg8gSoIINqm4HcZ9GhtEaRtVd0ThbrnNRp9tnZlyoXETFc5NNashWVwB0COgYWLenFsBE+UszTYVfMyaqZMboohE8sO4OFG0nasNybJTb2mBbVtrnqKFlwyqJL00xTY/JlxJ/veMx7Di8S0mnNMzqCtDK/n2pHS4me3+I1/zOPtwxshFtTin6lgAUCgW0d3RcUXaBZMa213YY19cKQFOzPyeY6A4me7bJ7K+LB9f/gquRSJ9lAh9v+iI86aOjowOWZbVIjdkBX/qQHFNUGxAhYwVUPfXxAjVtMrS6smd/bkGKASFIIhEURD7jP57rYWpqCix/Pf2MubYAEwVstmZd8HHuZ78ev5o37YI7jRNnT6PsFDN9EAAQoVBw0NbWDmGJqHMiwrz2LpScYqLdsckJuP7sHDHoKreju9SRj8YxaF4HMAiYGDHwCpn9uvqCBF45fgDHx8cgSEQD55gyEH4UloBVcKKyslPEv37vP8WNQ2uj9mZ8F3/047/Cm++8HaWmmeCa+cgMIQQeufH9+NjN9zamQTXcnga7wVNqZOYKZmn21yNCM9+dm57C2QuT+m0urrkLAjnBoZP2QhnnZ6ZSQ2QcfPs43hh/sypQOrufk0PK9M2whIVTk+qzKio6qcbY1Aqgm8FGiuOlkKMErvniB+q4R/V3A22fgEAX8CTIsaozPPtQ4FEOdIowQTnEO6wdL0+PLcRHEClndR4SGwnAnM1+jYSbp2srnp0r9MANyyPwq9ZCYZbwqiPEjXpoRD+heKL20wAXk9nfDHIG+mFLbt+8REq0WmcVSPQnJbjigaWsUz8PDvq+jAmogIbBIFOHicnzuT13JluHYeRR94hxrKO6mpsyjQFIKTF9cRrS1wtBQ9zrWjb1eWDCo1zRQO2+eUnCPgaxhBYI0TJ28SSMWH+u52Hq4lR0/EyFbCv4teqEnPVwsC5dW1dHQxOj9pvCL+fs1z2rBFIXhc4iaRJKzh3yNaMTp/IjQsgRDDLryER3MPkib1qXCSGa0RVrCTBhW7UE9fgBlei7MF2Ok+ad67qYujAFOAJhvmxw6DSGIyc/Q7XSMVLtmwiuvk5zZqCBf9jEJNQ82jIYzeYcOsxARw+W9iyARVbD5+PlRbuA3rauKEzrei6kD9w8tBZL+xZm8iizJ57UAhB+EEJg2bzBlmhlGAzSlLfKtpyzP3eypzEa+rakZFy3eBU+vfkjaC+UM3VV3rx4WdFO5mEIBj535yMolkqwYm7jpoAAx3KaGlsIGQFomqmXcfbnXf7z7v22sNBeKKOtUKplQVPkHoqFiCnhL4q3HBcKBxYsCZSLRYjLfOlEYzNwjjT/3Ic1DJ6dK/zSCbDJfmIQ8+jV651DnWBKYR3MIhgJt0EzCcSVI8/hVp2DYTbsr5XZD3AQChYicN2Cqi7a5NKvKgPCMxRJsIQAQJC+xPT0NMrlsnIruRRgrAS2PKPQ/Mw2NQ91Ea+8Y4jjQUQ4PP4WvvvyE8F+S4mK1TpqXG1h4/aRDVjU1R+V+Szxo13PYPLihYjplmPDKTggErF29H7ecByCCJsWr8L1S1bXHUO9cdc3A3Oeqol31qqSpqrHCC5uimYVh0wXsC0LTjU/r+K5TYurSsnbf+ooDp46VofAMQxDaxCMNqeEwe5+DHb1B0YiEVzPw9889ziOTpwMooGh8AgCbJHQHyKjM2buxQ1Hiyx8estHMwKQZ7LObk5gA2dlbTlU1NMd1Yp9314oY3nfInSVO1B2Cig7RZScAkp2EW2FEkpOEU8dfBEvHH0tmp15on46kFLCYxmzwGIjZcUmWT2SZYvggox0mnbFD05Nx2c8wIAbCEGwpKT7SPXCgCUseL7fEs+yVoBm5jVmVPY5xwru/6Fq2DIMgbYVSmgrlPDW2dM4N30hs2zrJPi25aP4xO0Pob1QRsGyUbAdOJYd3St04NQx/Gj3LyFZQpCAlGbLoA6iZ6qqfnx2hjgHK1CsPBpKEDwgyt5tQOF3ib6qWSQ+gywCx4QmvrVF9yhQrBuTMWjA4GBIfmAOFKd7Vt+E31i6Hu2FMtoLJbQXA1PKsWwIInz3lSfxjR2Pw4ulR6n8/MyMgY5efGTT3RjuXVA7al51b/osMe3O4PHdT2Pf2FEIEnW9fq3kMHAUGVKAUhcIcwIMKSkZkn2QbUUriQqnaH9oEfLlBBo4bmrjYJy7eB43Dq1FZ6ktO34C7l17K559Yyf2njxcV3kjIty96gasW7gcvspsIsKBt49h277nlXSZq2BQgjmkFpg0Lso0sCzxglNIdms+glmPBtZFOj1QAC+/eQDPHtpZuxUk/o8ZC7p68eDGLSjaBW17khlDvfPxwOgdKFhqeZ12K/j+zl/g1OSZGMFN4gf5HFZ1B2tSzcDUi/CQDPZkKtYQ1mncF2faVT8nTBsxnf3xelOVafxo97MYm5xQu0whcNuyDbhpeC2YZWb5ZwAFy8Z9627HsnmLlDgIIjx/ZA+eeWNnQ8o05yauYatMhqF6zKkphU3Z+VKCfb/BuLhheb3HDTyBGs1eVZ5OmSaB/aeO4qmDLyk9XpIl5rV34951t6Kn3JE9ts0Sq+cP4Z7VN8EiK7uLEGH8wjn8eM92TEydq10AybWESrNUdgN3dVXfiH5iK1mmvPo51FWoTlsy8Vlmy6WE9H1l/fg41axvDHWCQfnKVUAAZrwKfrJ3B25Zuh4j8waTdwUhWOJvXTaKW5aNYttrOxKes7JTwgc3bMZgd3/itEuMkthxaBeeO7w7wXztmFTLvMZvG18ybWHBjgd1mGtaeFpkuBY6biuUYAsLcSWQALQVSugoBt4/VfAv0WKYhSQQKIZhNQ48ikVbEQzKwSTb5FmT5V/n3SMEnrSf7NmOT97x4aobNAklp4iHNt6Jl4/vw9uT70Rtb1q8EltWXK/UoQmEt8+fwfdffRIX3RlNBm3re7xkxrpFy/CBtbcGh0MztKkxKkNcy8aK/sWJ/gq2g09t/gjOVy7WiEWaW9JSRSQEbMepBpACS2vtgmVKzmTw08AlOR4umfHEgRexZcX1GB0cyQoUM9YsWIr3rL4Z33rhp2BmdJba8aGNW9Ct2BqCITJ+tu957Bs7itlyoycFo+bRXNIzHx9Yfxvai+UMnZO2fwgUlYVLNhBsWRZZeN/aW1BbFdKxBVVZtVUKnD9OUXnUPzseAznPpQNkkhca1YntgWPnJvDYrl9iamY6oxAxgrj5P1p7K5b3D0KyxOaRTbgpdqImgTQJvDF+Aj/esx0zXkWDh8HsN1oIGBLhNbUc3TjuS1m9+1AmysLrbBM3kyOpBAbf+am6fp2yWj8Vz8XFixdnLYpY3wrIqTU3qr3j8G68dHyf0mqSLLGifzHuWXUThnoW4L71t6Gj2Jb1zYMw41Wwbe8OHBo/EZ2uaRXqCTRVPY0ECrya1R8hROJvZRmyFkB00NTkeUUZcxBOzpP5nDn0W4Uc0UBN64ZARJiYmsTje57FhsEV6Cq1Z+oIErh//e2Y19aN0UUjSsWPCDhw6hh++tpz8GXND26SH9gszHguJi6cw7Rb0eoP4SHRZBmhs9QGJ+a/YDDOTp2vjo1SDaSTSaju9mZZFno6urJbUw5oWQfIE/UTRPjVkb3YfuhV3LvutuwzYAx09uK+0dshNCO/6M7gezufjHwLjVYps8OW+u1CCMJLx/fhiz/6GoQQCr9H8H/8eFfYTskp4tNbPoJNgyuj8orn4U+2fQNj58ZTVkCqXc3n+F+CCB+94T342G/c13Q+gWEwSDHienXqwIxbwWO7nsb1S9ZgfmevwvZnLfOJCC8d24/th3ZF8YY0znrz1dyNHW+HQDgzdQ6nz79TizCm2BZ6gePBI+bA3Dt78QLSmcR7Tx7C4fG3qvgnw7wqMsd8UVEkMAgHC9y8dD0qlQqcyDowG18ILW2g+Y+FByG118aO4B/2Pa+27XWIEuGdqUn88NWncCbm9GkGPx1N6tWP9vKqVy/an1N6QfAjEjpACPE8wjBKWHum9hmxNhF+LygyF2u6RfC39CVc121KMcwnAC3O/mDwhIrnYttrz+HQaXMljgE8c2gnXji2L/frm1rPZmr8RW32U9a3pHMFmw5DlWWaQsT3/YwQzEowSLukNjP7w/EQ4fD4Cfx03/Oo+C4aARHh7ckzeOzVp3FhZjoZds2bOGq09zemgpJ3kSKQ9OSRojW1SU3ZpT9qsjEzpZRa60B3MqhBMCjnvpkny4YZ2/buwP6xow2XcykZ2157DntOHk7m383i2QAtDRQCXUvTCssRMZ91m3cc1NJjVKQcX7R1BELge742uzoN5ltAiwmbKhi/cBY/fPUXuFiZ1q6GRITDEyfw93t31L1Xx0j5y7v3q/AxLtSPJ3LmR78VwmMg6FpaVINIJqAVgNnMAlaXEzwpsf/UUZw6f0a7Cggi7Bs7gpNnT2M2oZH2r1oy47d3ZAozDWWjTMamGpltvdowRNW4YF82FJ7G18SlRqw9ml1vz2X1F7awcMPQGizq6s9ECUOQzLhuyWos7x9MNJT3WrpWkkPD6F42HIxkOFfKZB0OgwVJ5gdtIRvarf7LhnyzP5I1Ihy3PBhgn+su03MSDDLRHZgZi3sG8MDoZhQsp65esahrHh7ceCf2nzo6K9er5TmixmD0tXVisHsAFqUdQXXemVB1BHW1Ja9wEySwftEI+tq6M0JRbTKLkya3wSKBwZ6B2kpAKvuoVQEw2PvzBlsYwQ1XD2y4I8j0abDdEBG2jGzCkwdewDNvvJrKpjXAI9V3HpCSccPQWvzeln8cnA0Ea5fyNPmJAldwHAq2g89/4LcSuY0qN3IjeoRQrt5BqM41rEU0dcOe1Ysi61+ZUvtOSonRwRHcs+om2MJq6BBiZvS2deHBDVuw961DODM1mcv1abL811Mii46DvvYutBfKemVdc0o4vcUIIvS2dWXqmYJpXVNBbxANVDfYipkVHvD4wPpb9Zk+mgHdPLwOty7foMavlaROBY5pOkQXRaj2ZEW5qp1kyhrXb1PxA00/WVqZw5wFg1CneOPiFbhr5Y253jvEzGgvlvHQxrvw4rF9OHVuAib2l4kQN9pGiAiWZcESWR2glrjByrJQoYvP3PBwqPpAqRp0CSLx3MNYRWPIfU9gU5m1sec7imU8tOkubaYPEJztKyhy3ZgZ6xctxz2rbsK3X/xpLfHTaPbnmy015gPH3xnD47ufqV72wKFij0bOG1tYuHFoLRZ09UVlvvTxD/t+hQthSpjmWS1PY7YfkcCaBcNRWlikBOZgkSIaaP5wM6HWO0Y24oYla5TtERGOTpzEEwdexMM3vi98h2ECCpaND27YjB2Hd+HQ6bfqCnwrpl8IggR2nziEA2PHaq90Aad8AtmALYPRXihh6wd/Fwu75kV0qPge/ufT38HRiZMxp1B9t28igTWgVBCqJoHf2fwQ1i1Y3vQpoTk5GqYCyRILu+bh/tHN6Ci2Kfd+1/fww12/wE/27MCyvkW4e9UNyizikXmDuH/97fja0z8wiiWYgk4wPOnBrb6CJRO8rUY409IWji6etAIEVacq0zg/M5WwGjLbUJRfwEkhiZ0RtMgKXg3TQk6kgStYs2/mNP0ECWxZcT02LBoBK5hvCYG9Jw/jqYMv49T5d/DjvdsxcUEd9rWEwHvX3II1C4eTL0fQOn4ab2GNbt5UhW2T4VxFCDc6FxhA9F10cDRVPwwXJ1LK4nVEqhxQ5RPnsSoaCEBOLTPtQIwlQSzpGcAHN2xGQZFaTSCcn7mIx3b9EifeOQ1LCDx3eDeePbxLyRjJjMHufjy44U60FUoKZpoN3iR+0FCJVDluqgyOx4KyTKmDpHIriK0WiXJWPpulSRPRwHQDDYmledYSFu4fvQPL+hZp23nl+AH84vWXq2MgTFdm8IOdT+Ht82eUYyIAd6+6AdcvWRW5UTWYNx5DI4mhBuW64IDBTMlUUZ5v0Cib6SCj5vbw6DvFyjBnV1SFDJEssXb+MO5edaPyUAiBMDkzhe/tfBLnLl6ICErVINDP9v1K46IFussd+PCme9BVbp+1DGaj2Q/WCEVajWfloQ+zvtWhnqR+EKNikzmBdQTAwGZuEGxhDo5H3Td6Bxb3zNcGfJ46+CJePr4/U17xXDy++xm8fvq4UngA4Kbhtdiy4vrYsmlC6hRBleWGFIwxymQ2x4sbd2GQI0CqajX/RSNQUFUbvjOG+EUwGwdXYvPIderOSeCtc6fx4z3bA604liQZDuDQ+Als2/scpt1KdiYxo7PYhgc3bMaCzj6tgIV1k+TR462mCMf+j3n/YhTjRN1sa1FeP6reRc0/mWhX9S++p6uWffMVobEZaLD3Z8kVQGepDR/aeCf62ruU7fjs46mDL2LXiddruYGpalJKbNu7A1tGrsPGxSsyM1OyxIbBFXjPqpvxzRe3xb6fLQM28N/bViE7bq65hDKWOwNF24nGFWdIwXJQdAopJnGtScUIWPHbElb18KlaEZylewLVCCXKY0SP19k8sgm3LF0XmSxJ3jCOTozhh68+Ddf39BE2IoxNTuC7O5/AivlLlM4hx7Lx0KY78cyhnTgycVK5UiiJauBBlCwxunAE71tzc/XNoWErqWQ/xZZtWzaWzxtMlDmWjd++/UM4O30+Gz0Mm0ntEcoLZqh2TRynG4EZ84Ec18TpCFcPJqen8P9e+nl0KVRHoYS2YhkdhTLKThE/ePUpHDszFguSxOmZ7PvZN3bhpWP7sGXFdRET4lgs7VuID45uxlef/l7LN2fF8ZDMGOkfxCM3vh8dxXLqIEjWN59R2lKss4WFj153N1T7u2mb8bIwUSUo171DSM+vWQgGqT8DwPZDr+K5w7uDlywKAUsIWCRgCSvK8zeJBhKAM1Pn8J2Xf46+ti50ltpgCxuOZQWnZYWFol3A+9fegu2Hd+FXR/ZGh0vyZy9nCRde3hAP7KRdwLoyFUhNuphpmyr386ydDFISq4mGQwXJZx/MXuTSTPyfqJ8lfNgOECiMzx/ei9fffhNdpXaUCyW0FYpoc4rVzyW0F8qQUibe79fqOALqxlQtUizcmdTvWhnrmzR6Plmcnd+MLPN1lpoKjI6G6b7XxuPjZwBCJOMUyblPheBKDyfPjeOtc+PVZ2P5c1F/pJz9eXMH4uWe7+NCZTp7o0c4FEqWhGUEQtEuZEzYi+5MtPKRgtPqyyIUpRQolJnIaSvRwNkGE91Bq/lqYvO1mUUgYi1z8yKo8rAKIrx4bB+2/uh/VTVuREKcTZ5F7eqYak7gJ25/CBsGR6IqM56LP/7JX2PsXPLirGw8UVUer8GwSODBjXfiw5vuqn0R8wvo8gzjkCsamHf2Q/Nsq5AXj1YEhIhwavIMxibPxBqq6gYpKyDu/0A1geUj192VSHyRLPHckT04NH6iJgCcZBYr2gz+TIQFYQkLo4tGagurSglsoBo0eGdQvnK9HKdr1fMg1hSvuYY8ghTl/TFH5/+S/I/fVM6xq17VuYJxB0480TTebrzNRPvhfxQKYfYegbS7WkfPJoNBjWd8kyxpWGpy9hB1BUw1NmMiqIM1Bucmsv1xrX4L8XwA6ucNTxbNYTBIV65jzlwJlZoQRuZhWqgyQZh8FKhF5JoTdPVlmxql0RDqHA2rj0w9ImbaUtRrJmY/J7NfW55/bFqlS3M8PE/2st7O1zmUVLTJgtE9gWbQvLt1Nv32euxMBGYW8EuvEoaTs5611PgSzJiFlNMh1NRVsbmJ0iS0OjvnGqeMcGv8G3k18/x11Yyfg2CQwf5dj0AmfeQ0I02Wf5M7AxtfuVYL0UZPxx+J+SPiTirVsMNcfuURt/ihz4S6wBmaE1MiQcSEXmlo6p1B2vqm9QyUP7O9Pxd6OcaRxKm73I4FXX3BiyhUY00JYfhXuVBCZ7EN8SVaCIGVA0tQcopVj2VSKUwmAnGc/xnaWEJgQVdfXZczGnzX1FvDTLJuzIRnbkzI2TwkKqXEzcPr8Jm7/knw5lDllE79XZ2RggTmtXcl/PVFy8F/uO+T8KSvdu8CgMJSII0/obvc0RIVc58Mql+xcb28BzVnU4nMGxkM8/rai2UM9S7I3FyqvBIoFRxIL9FEhMU987XHwhq9ijbdTyYcTOn3EQOooxg2EQxSE76eja1mXGuz30yQTPb+xh2Elz+E9/kHNKXEodF4WXxsOvNPF9JVWQDqMnU/meE0sAouQTBIp5jFaT338YPcuMbKCRSlXyUuqERMyVNG6wzLYD7zlQyNZyGxVYuGGpiEBsGgfJ67OfPiGcza3Eu8ARAR3jo3jicOvICyU6wuqeHwYxpbg/SwsCDiSfx5RTw/G0cItxK944cBeNLHm2ffNj4lPMsvjkz/nc8si7dhLkjNK3kmOBEJvPLmARw4fSyqqRyrZnVL1s/SI5ErGccjXFziOgSpy9MmpOrksY6eDaKB+TT/ViFv/MDkvP9swIznYtqvRJ3XflPEjLTiRVX8lPZ9CBklMhX81a0knKoXL68eG09W11OkqRXAaP9u0fyaLciT+6cbT3gnbxj/D5hLsc/JRN44v1TljKQFEV/C46fNIjdBejxE6nZT5TGYBKiimhp1XhrV/J5ryJmWTD8TL16r+kjcCZN4MaSqjxTl6+Fn7K5vUE+ntKbw8wH8HRMfU7Vh12u0UadKYiErPMzmz9bt26DibG0jKXgDwHYAleyuDc2xNA2kjw8q8MgLdZ6UAF5jpm+SFOPSnslUyApAxQsRpSDzparh1oljzxVcOdsInkFF/B4K8nzLyRuXCRgMYitTnhEAPxCA0yB8h0gsBbgfQA+IOpngBPfWxy53ynieGs+0uojmPKzZSvwgh4dTQMCCTzj4x9/NT/0rGDICIH0JAIdI4GMu/DZirBCCVhKJITCWM/MIE4YZGCRCX+B1oFBTAsCAaLR5XQKm5YQrxRl1qSEjAL/8wv8GAL5t67/wpY1JG/QyCC8TgCMTp2lhd898IaifGH3MPMTAJgCrQLSKCIMMlEAogsiu3qeSsmNnkaCzpES+m0FrBWzf+n+iz6NbH8ZdpU2odHtMoDECxghAd0cX3ho/9W2nUCgKEkUpMcgs1xFjDRGtBmEYjPkMzIPAPCISDAQrRKRKVT9fkixgXfm7c/YDLeSj3vaF38S0dFG0ncDxUH0XHpjhEeO5p76Bm+/6zT5yeSkTDRFhiBjDzLwKwCoIGgLQAYIAETEhJRgBxJMsspG6sDxezMr68cBNWvNX5yzGyhmPQtJnQTh71esAprD9i3+r/3LrPcCWzSDQBMATAF5iMNxpaZEte4QQvSSpB8CwlLgexBuIaAWAPgZ3MqGdqlsIi2q6kybz5dLBpbeCLgXMTTRw6xMAgOfxNADgjq3/HCXbxmRhxveZxwk0zgAcSb+a8vj7ls02AEf6/jCD1xPRGoZYBvASAENMWMhAH4ngnjaumqWk8pIpoNWVPO3du5rgkrw8+pmt30j8fc/Wj4OIcJamYQM+iHwmzADYA2APA3jlS9/E+j98pN+xeIgZC5l5IUlaw8zrQVgBwiCB2hhsB8eBCSyQDNUq4FJ4EH+d4IoU7JWffxgAUGSCLQKWFWBhiqVDUnaS4LKUfi9JjLLAJiJaAablIAwA6GZCFxNsCk/lUqhb6PUFaMqDmD89SlJ8FsTXdIBLAQe//O3E33d+6bdx+NxJ9IhOlwkTAODYzpuDi5ftev3wa98SLITrcUdRWCsh5AgDQwwaAeQwg4cBGoZAD4epdWnzNAbvptkPXKErQF543x/+Pt6oHELJtgEhIVjgXL8lOsfdfsnoZ8n9DF4KxhoGrwWJtQQsBKEIoCQJdujhDJMukvd80aPkX1sBrlj42Z98pfbH1nvwl6feiz91XpIAnQL4FAhoc8qYnplyPA6YzpALIbEawAZmXg1giIEBCAyAaB6o+kpgQQCDpOdhlt5Uf0XBVbECNIQHFmJkzY1whIBkAIKiFz5LCRz80+VY+vuv91qQS8kWS8E8zMwrmXklCKsZ9CT78t+A8M6Rr/z95R7NrMK7QwDqwcMPQziMof6LsCABW8BmwkX2Cja4l4EeCcywj2NE8I9eE4CrGwb/4F54JNHmOzFNgIL37xFwtQnANbgG1+AaXINrcA3enfD/Ac1MiJrIYU9BAAAAJXRFWHRkYXRlOmNyZWF0ZQAyMDE5LTAxLTA5VDA0OjA5OjU5KzA4OjAw+uuxjQAAACV0RVh0ZGF0ZTptb2RpZnkAMjAxOS0wMS0wOVQwNDowOTo1OSswODowMIu2CTEAAABDdEVYdHNvZnR3YXJlAC91c3IvbG9jYWwvaW1hZ2VtYWdpY2svc2hhcmUvZG9jL0ltYWdlTWFnaWNrLTcvL2luZGV4Lmh0bWy9tXkKAAAAGHRFWHRUaHVtYjo6RG9jdW1lbnQ6OlBhZ2VzADGn/7svAAAAGHRFWHRUaHVtYjo6SW1hZ2U6OkhlaWdodAAxNzbZs5jCAAAAF3RFWHRUaHVtYjo6SW1hZ2U6OldpZHRoADE3NkpCyJ8AAAAZdEVYdFRodW1iOjpNaW1ldHlwZQBpbWFnZS9wbmc/slZOAAAAF3RFWHRUaHVtYjo6TVRpbWUAMTU0Njk3ODE5OSVftIsAAAARdEVYdFRodW1iOjpTaXplADg2NDFCqK1o8AAAAGJ0RVh0VGh1bWI6OlVSSQBmaWxlOi8vL2hvbWUvd3d3cm9vdC9uZXdzaXRlL3d3dy5lYXN5aWNvbi5uZXQvY2RuLWltZy5lYXN5aWNvbi5jbi9maWxlcy8xMjEvMTIxMjk2NC5wbmc1Ct+OAAAAAElFTkSuQmCC;" parent="1" vertex="1">
          <mxGeometry x="130" y="191" width="38" height="38" as="geometry" />
        </mxCell>
        <mxCell id="e5k0GmYDkn366S63yn-u-32" value="" style="shape=image;verticalLabelPosition=bottom;labelBackgroundColor=#ffffff;verticalAlign=top;aspect=fixed;imageAspect=0;image=data:image/png,iVBORw0KGgoAAAANSUhEUgAAAJIAAAB/CAYAAAAEoZvSAAAABGdBTUEAALGPC/xhBQAAACBjSFJNAAB6JgAAgIQAAPoAAACA6AAAdTAAAOpgAAA6mAAAF3CculE8AAAABmJLR0QAAAAAAAD5Q7t/AAAACXBIWXMAAAEYAAABGABXSV8eAAAAB3RJTUUH4wEJAzspYCpsuwAAEs9JREFUeNrtnXu8XFV1x79z782bvAgJISRCeCRAEgJJJdLaIi0gUWq19VP78EmrrfUDakt9UPuQiqAtVikVIRbUWluRDw2oESgiqZjaxMQbSAIEgiQkJDeBPLg3yX3O9I/fmcnOnnXOncc5M3Nnzu/zuZ9MzmOftc/57b3XXnuttSFFihQpUqRIkSKFj0y9BWgkLFy8tKzrN21cX2+RGwYpkTAJNBaYAcwKfueALLAH2Ascci9OCZUSySfRHOCtwJuB+cA0oCM4lwMOAjuAx4B7gJ/nb2x1MrU0kRwStQFvA/4aWFzi7XuA24AvAT3Q2mRqr7cA9YJDog7gw8AXgdeUUcQJwBuA04HHgcMzZs5ib9fueletLmhZIs2YOSv/8z3ALcCECorJAOcH9/4QGGpVMrUkkZzeaCHwFWB6yKWDQF/wb5Zj+pKPxcDzwEagJYnUUX0RIxYZ4E+Auca5l4F7gUeAfcG1Y4BlwDuBed71o4EPAauCe1sOLalsBz3SbOBR4Gzv9D7gA8DKkNsvAO4CLvSO9wNvB74Lrad4t9VbgDpiAbZyfSsOiTZtXO+TohP4c+CAd99o4HX1rlS90MpEOh0NVy72Avfl/+MSyCPT/wEbjDLn0qLvtCUrHVH3o0TYhJxjR4HnjPtPoZicLYFWJpKFcnTGbJX3NxVSIpWJpzc/UW8RGhIpkVLEgpRIKWJBSqQUsSAlUopYkBKpTJyz4Pz8z1y9ZWkkpEQ6Hu3IQm263XquJ9OM+4doUYK1MpEOU/zRZwI3ACdG3NcBfBy4yjj3PNBb74rVA61MpE6KV+rbgXcAl0XcNw+4Btt/aW29K1UvtDKRtgD3G8fbsF1L8pgBTDaOPwk8CK238g+tTaRB4B+Bbca5KIe/HMVD4iDwBeDFeleqXmhJIjk9xi604u+jXIV5AJuQLYOWJJKDOBdZ26A1h7VC5VOkqBYtSSTHHjQUY7HZfNnlhn43A1qKSN5HHgssR9G11WIM8CbgJPdZrYSWiCIxPuprgeuA3wTGGbdEKdsZinWrNuBjwCVoJrgK6M0/txX0pqbvkTwSnQLcBDwA/C42iaDYsd9FN7b1ug24GPgm8G/AseC5FhjumjZAcuHipW40bTvwFhSr/3so3DoM24DPAfv8QMegvEPAecCikPtHBeeXo57rKQLiNXMUblMSyWv9J6P1s88AZ0Tc1o/i3D5CECESQqQBYA3Si84ExoeUNxm4HFgCPA28lC+jGcnUdETySHQp8GW0fjY65JYs8GPgejTsPZs/4X/wvV2782TqAR4GVqN3OBcp7z4ywFnAlSj0+0maND9AUxHJIdFolBziNhTfH4ZngM8CnwR+hj42EK4gO2TKATuB7wHrUc93Orbeme+dpgXXNl3mkqYJn3FINA74NHAt4TFmh4FvoCwkxy1tlDPD8nq/ycC70WwwKj3OKpQn4IVyn9fIaJoeyVGsP4ISZo0KuXQ98BcoH9Ir+YObNq4vu4dweidQb7YWZXObijK+We/3bOBU4AdAf7P0TM1GpLPRcDbVuKQPWAH8GQq5zkJlBHKxt2u3T6g9wPdRMool2DPEeUhf2pwvY6SjKYjkDDFvR2lnfOwCPgHcjPJAAvEOKx6hBlHvtA71TL71vB2pFf8FZJuBSM1mkLzQOLYbuBq4E03xrQwjscEr93+Q3Wq1cel5RLv0jig0E5HasR3yt+J8yFoot94zXkT6kI8TCLesjzg0E5EyEfWpua+Q96z+kMuaJuKkmYjUcNj8RCGFUtOYWcKQEilFLEiJlCIWNJM/Ug5Nu31UFP36+lvtELXHr72oEtmspFxNox9Bc/VIQ8jI52MzZUa/OiTKICv0aQSLvmEEs5DLFbiyk2KSb8WxrI90NBORAP4T2W4Gg7+fAndUWNZ4tJj7GPIOuB05xpVFpgAPAV9FXgMDiEQ3ozW/pkBTDG2bNq7PW7e3Ic/HZaiRrCXwAyp16p9pK7St30KLv/l3dDWKgftkBSJ2o/W9bwKTkNfB8/V+b3GiKYjkoQu50laEjnGT8j8vpvj9vA75HZU8VDokPwL8xDrfDGgaIsX2QY71SJb3gOX4XzvZGhjNpiPFiaaaVSWNlEgpYkFKpBSxICVSiliQqLJdgb2lkZALOTY4UutWoVW+JCRGJOdFdyAX2BmJ1SJ+5JBF28dUFOLUV15xdcU+ZAAdfP2taxMjU2LuDQGRJiJH/Hdhp8trZIyiuKFlGVkkyqDI4H9HQaKHIJmeKZEeyemN3oPCc5rFH6eNkefVOBZtVLgLpSdMBEkr24toHhKNdFxAgt8iaSKlJGocjCXB712PJZIc8WZKSwptFL/4kSJ7PtzJlz0x1INIW4C/J9whvhGQA/4UeOMIlH00muAsqOVD60GkfWgD4oE6PLscXEYxkUaC7KNQI6gp6kGkTPDcgSQNZJVi1MQTWXbjg2DrEw0tezBb7qAOumm6RJIiFqREShELUiKliAUpkVoHiepNSRMpbAW9gb0PG1i00pDFju/rT7JySRPpF8axn9PAuywOHunJ/+w0ThdSHTcw+lAYlo+t2IGasSARIjlT468B/4HiuY6gxFK3JFWZOJAbKpiIvoMyvL0ayP4ocCsjo8v6F2TvOoJi5+5FcXWJIWk3ElAeoIXIbL+ZIGNaI9phDNnHooXnMciqvX8EyT4ZWbdz6L2/mqTsiSpgMcfP1xRRHpCNLn893nvsRCp3z41GivlKZa8csRHJq0g7SrywALms5p8zhEKVn0KOVolVrArZM4Hs81AC9nzC1oFA9mcaXPZTUQLUMzi2BDboyL4zCdljIZJXmUUoWfoVKOmCH7HaC2xHivftwI64K1WF7AtQMvUrgVkUJ3w/Gsj7vUD2QrL3BpD9HJT6+UqURdff0uIoyme5CiXWeDpO2asmklOZdpRo4VNEZ7538SRKW7wqzkpVKPv70H4kc0u8fXNQ15UNIPs7UMKLs0q8/dlA9ntx8o1Xg6qm/16L+CDKpl8qiUC91wrgzVXVojpkkNvFlyidRKDeawXw1jrKDmoAd1A6iUBRPSuwc5JXhKoStjvZ7i9BtospFRQzEW2S9zDwSq22VHAawWVoB6VJFRQzHmUtWQ3sqYPsFwFfwU4LPRzGAL+EMqTsqlb2OAySE4C/BKYb57JoS4Xtwd/+kDLmox6t1mt/44APE544/QDSiXbg7Bjg4TTgGmrv2zUOvfdZIecPOrKH7Yg5B22hOpYqEceHW4p6JB9dKBTpEuDXgr8rgH/FdlV9G5ol1RLLQmTvBv4BbY31q8HfFWj4s7KsLUfKbi2xOJDPRw9SMd7oyH452mu3x7j+1wnfDbNkVNyKnO51GcUbt/QhxfUu7/gONCsaoNgd9FQUMpN4JjNH9kvR0OpiECmuX+D45ZAdaGelLuS37aoFM9EH25S07JlMYX50McVBp1m0jeqNhuwbUMa5Gzl+Jj0VfcN11cgVR49kKahb0PQeKNr7ow+4m+KhooPwbjoJZEJkfxptbpwzZM8CX8fb4y3AubUQur29wF9LuX4GNV5L9lxwbotx3/xq5UpKJzmE7BbHTSud33sI1n48TByu4BgxBphtHH85L1uI7AfQRjk+aqQjZYp+OOgi0ENDZD+MradWvUtWUkSqKEVeHBUqU8YwB/+RGthZiuyJeC+kHpIpYkFKpBSxICVSiliQEilFLEiKSDmCxUB3Pc75naVxXVaHC05o5OCFUmRPBHEQyZolnIL8ecKwFHtdrpaO9WHZ1yYRGPpCGsF07CWVWs/0rOdNAU6KkH0qdua8qmWPg0j7jGPzkZO/tRB6GvBZo0I5bPtMUujDtqJfiPYbsUwRo5HV+3zj3Mu1EDqXKwSCHDROXwB8hmI/KpA1+wa0hbyPsLW4klExkRwj16NobcrHa5G7go9zsK2yL1Klmb4CPEbxul8GbYxjyb4QbXbjoxv4US0EHhoqpGf6MXYP/qYQ2V+D1gT93uco2lGqKsTRI61BoTs+xmJbqsdhJ7C6HcVeJQ6nEXwfeMS4ZCpwsnF8EnId8XEv8HgtZHewGviucXwiwfBm1OkE4/gqGoRI/cC3KdY3ylFKD2F/0KTRg/ZS8xEmt1WnPhS7V+vkW4eRJ0U1770PxbsdqVaYqojktOyBMoS3UKh8HXyfqyVANl9GHWTvpbro2SzBmmi1iMvVNo5pZc4rs1YYqetqDSV7RURauHip/8FPrrSsAB1oDA8rP1YYITzVoLD4m7TchuxtVcp/3MJ1NbKX7frgPWwmihz5IMHmwZ6QpVZyIoqrvwUp7t35Z8U5XHiydwC/AfxhlcWOQQnRe1Hyhlz+OQnK3g78CnKTHVNRgcdkvw6pJv8LDFUqe8m9iNfaRgF/gLb8vBHbr6cfW4nrwx7Xz0OO7N9BHzhjPLdiGLF3dwL3AL9sXJ4lPA1yxvj/VWgGdQtwZsgz45L9HDTDXYncaa00yNb7HTDqlEHmggeAf8YxIpcre0lE8gqdjyJGvopsRWF4Ftvg9zxy+bQwKng59yDD2imVVsy9z7l3EnLUX4nCeMIiR17A9oLchZzyLEwDPhqU/U4Ch/pqGoJ37wnA+9FHfz+OKuBhD07QqYO9hBtNp6JR5QHgvQQmjnJkH5ZITkEdwO87FYnak2Mb8Lchgm9FvVhXxP0nIp/v+4A3GLKUBO/6JWia/k8onDkMh1HrtKzsz6HQpaiNbRaiRnYHVfRO3vXnohRBX8Y2NubRi3ra7ca53ajHj9oifn4g913uc0qRPdQjceHipW7c2nRkXr8B6UVheDGo7MfRmAtQiJdyyluPrMogv+kwUs5GwZMZlPhqoNT4K6fyo9HuTLehOLCwxtOHbEqfQMNrNkT2DcjJfwqyFlvvsANFeVyKeoJngFwFsrcjFeJ2FFwQJns/ssNdj7aEH4x4751oeeo0bB25HTWGy4FXUJ6GYWUPJZLz8HODirwLe+dpkGHvWyjm/1s4PZGrtO3t2u2W+xKyqq5FXevcEHkmoJCZ2cG1PcNVyvkQJwF/h9bHpodcngN+BvwVaiibMcKYHdkHkQP9/WiYnottBSc4vhzpJp2U0BC8Yfhv8IZ4AxtQ+PWngScC+cJkz6IRYSVSPeZg70uXf3fL0RC9DuiPkt2cVTmVmY+IsYRwrEYxYA/jZMQfTuv3ussJwO+gWUjU1gcPAH9MsFBsPcNbpb+T6JDqXainuhtvqA2T3+jmZwN/hHSMMEINBbJ8jCC2rATZv4hUibCZbxdq4CtQoxxWdkP+mUgnupZwsmYRBz5K0EFY5Zs9UsDedqTLXBXygP1olnIdam2FVlxK9723a7fbUgaAjcB/oynpedi933xEojX5MkJk70C9y/tCHj8E/ABl7/g2jt4wnPye3KCIk9Vo6j8H9VD+x29DrjM9BGtyEbKDhqgPYZMoixrtNcA3cBbMS3n3nux5eX6Cdvg8i+LhM4O8HQ4H9TSfEUWkRYhIE4xLNgAfQErZcR+hXHgV24/0lB3InWOKccsUtEjaG/ExFqPIUmuBdT8aBq7HmVWW2gBcuT3ZdyATQA/qwX29L4OU7/uBgxGynxHIbtX9AHAT6tkKC9wxyL4TLWC/GshuvbezgAeBl61nRRkkF1GsV2SRIvopNIMpVKQa5O8Put0BFIS4BUWNXupdfgZScqN8aJZgr4BvQBOBHxLT2t6mjevd4eIg+tCdwM0Uh0LPCWR7IaLIi4Lrih6FyF9Y8Y/5vXcDn0cjw02oIfuyX4SU7yJETf8nU9y1diEFMDYSWRULsC6okD/VHk9I1pO2Y1GoZxqnn0Nboz5CzAvERkTrKhSS7tvLOgjRo9raCp9iHsUjxStBebGRyJffwUNID33JuHR8WBlRRLIWYgcInKm8l5dUpfopY3W77VhcvOVOuhPNVKznJCH7NsKzrxTBiem3fIZ6SDiznVfmdsr0+GzIKJIYXpTVCAoLlEm6ezhlVxqxGyZ7psayl4WGJFKKkYcoImXKPJ4ErFZdSktvBD+dSmVohPdeNqKIdJDibnYQe8OUpHCU4m0/jxKSPS2XK4hrZTqp9YcYwPa+NJ0AHdmtZFh91NaVdwj7O4e+wygi/YjA8OfgPqIXW+PGFoqjMx5Ea1fFtT8WYbHOeBFbiV5sjRuHcFIQB+gxjgGQzRbmFGsodr/ppEbhTgG6DTl7iTBbRNmRdqMp59XIlP5TtAJdyx6pG+V47ERW7afQksBwfsYPIZvIu5FhcC1ackhsdyADAyh+bxqyyRwIZF8zzH2PoxWD9yJj8AZkGK7lhsyDyPRyciB7NzI+Pxp2w3AekpuQ918bzkeosZP7C8glpRwZDiN7193oYzwXHKu17J3Ab6Nlk3xi0+H823uR5f1ryHP0F9hDddLYhNY/Tw+ev52IhhipN1h+KLWOlKhEhij/mVrJX6kMI1n2FClSpEiRIkWKFMfj/wEpJKXvnqzBlgAAACV0RVh0ZGF0ZTpjcmVhdGUAMjAxOS0wMS0wOVQwMzo1OTo0MSswODowMAmKVW4AAAAldEVYdGRhdGU6bW9kaWZ5ADIwMTktMDEtMDlUMDM6NTk6NDErMDg6MDB41+3SAAAAQ3RFWHRzb2Z0d2FyZQAvdXNyL2xvY2FsL2ltYWdlbWFnaWNrL3NoYXJlL2RvYy9JbWFnZU1hZ2ljay03Ly9pbmRleC5odG1svbV5CgAAAGN0RVh0c3ZnOmNvbW1lbnQAIEdlbmVyYXRvcjogQWRvYmUgSWxsdXN0cmF0b3IgMTkuMC4wLCBTVkcgRXhwb3J0IFBsdWctSW4gLiBTVkcgVmVyc2lvbjogNi4wMCBCdWlsZCAwKSAgzkiQCwAAABh0RVh0VGh1bWI6OkRvY3VtZW50OjpQYWdlcwAxp/+7LwAAABl0RVh0VGh1bWI6OkltYWdlOjpIZWlnaHQAMTgyN3A82L8AAAAYdEVYdFRodW1iOjpJbWFnZTo6V2lkdGgAMjA5NXQpQhcAAAAZdEVYdFRodW1iOjpNaW1ldHlwZQBpbWFnZS9wbmc/slZOAAAAF3RFWHRUaHVtYjo6TVRpbWUAMTU0Njk3NzU4MW31tXIAAAASdEVYdFRodW1iOjpTaXplADY2OTIyQhLc7kcAAABidEVYdFRodW1iOjpVUkkAZmlsZTovLy9ob21lL3d3d3Jvb3QvbmV3c2l0ZS93d3cuZWFzeWljb24ubmV0L2Nkbi1pbWcuZWFzeWljb24uY24vZmlsZXMvMTIwLzEyMDI2ODMucG5ngYXfwQAAAABJRU5ErkJggg==;" parent="1" vertex="1">
          <mxGeometry x="250" y="190" width="46" height="40" as="geometry" />
        </mxCell>
        <mxCell id="e5k0GmYDkn366S63yn-u-33" value="" style="shape=flexArrow;endArrow=classic;html=1;width=14.285714285714286;endSize=10.668571428571429;" parent="1" edge="1">
          <mxGeometry width="50" height="50" relative="1" as="geometry">
            <mxPoint x="380" y="210" as="sourcePoint" />
            <mxPoint x="300" y="210" as="targetPoint" />
          </mxGeometry>
        </mxCell>
        <mxCell id="e5k0GmYDkn366S63yn-u-34" value="潜在大户分析" style="text;html=1;fontSize=10;" parent="1" vertex="1">
          <mxGeometry x="300" y="170" width="80" height="30" as="geometry" />
        </mxCell>
        <mxCell id="e5k0GmYDkn366S63yn-u-35" value="" style="shape=flexArrow;endArrow=classic;html=1;width=14.285714285714286;endSize=10.668571428571429;" parent="1" edge="1">
          <mxGeometry width="50" height="50" relative="1" as="geometry">
            <mxPoint x="248" y="210" as="sourcePoint" />
            <mxPoint x="168" y="210" as="targetPoint" />
          </mxGeometry>
        </mxCell>
        <mxCell id="e5k0GmYDkn366S63yn-u-36" value="输出大户名单" style="text;html=1;fontSize=10;" parent="1" vertex="1">
          <mxGeometry x="170" y="170" width="80" height="30" as="geometry" />
        </mxCell>
        <mxCell id="e5k0GmYDkn366S63yn-u-39" value="系统管理员工作" style="text;html=1;align=center;verticalAlign=middle;whiteSpace=wrap;rounded=0;strokeColor=#000000;" parent="1" vertex="1">
          <mxGeometry x="70" y="270" width="20" height="120" as="geometry" />
        </mxCell>
        <mxCell id="e5k0GmYDkn366S63yn-u-40" value="系统管理员" style="shape=image;html=1;verticalAlign=top;verticalLabelPosition=bottom;labelBackgroundColor=none;imageAspect=0;aspect=fixed;image=https://cdn0.iconfinder.com/data/icons/ikooni-outline-free-basic/128/free-17-128.png;strokeColor=#000000;" parent="1" vertex="1">
          <mxGeometry x="100" y="250" width="70" height="70" as="geometry" />
        </mxCell>
        <mxCell id="e5k0GmYDkn366S63yn-u-43" value="" style="shape=flexArrow;endArrow=classic;html=1;width=14.285714285714286;endSize=10.668571428571429;" parent="1" edge="1">
          <mxGeometry width="50" height="50" relative="1" as="geometry">
            <mxPoint x="170" y="299.5" as="sourcePoint" />
            <mxPoint x="260" y="300" as="targetPoint" />
          </mxGeometry>
        </mxCell>
        <mxCell id="e5k0GmYDkn366S63yn-u-44" value="登入内管系统" style="text;html=1;fontSize=10;" parent="1" vertex="1">
          <mxGeometry x="170" y="260" width="80" height="30" as="geometry" />
        </mxCell>
        <mxCell id="e5k0GmYDkn366S63yn-u-45" value="" style="shape=image;verticalLabelPosition=bottom;labelBackgroundColor=#ffffff;verticalAlign=top;aspect=fixed;imageAspect=0;image=data:image/png,iVBORw0KGgoAAAANSUhEUgAAAIAAAACACAYAAADDPmHLAAAABGdBTUEAALGPC/xhBQAAACBjSFJNAAB6JgAAgIQAAPoAAACA6AAAdTAAAOpgAAA6mAAAF3CculE8AAAABmJLR0QAAAAAAAD5Q7t/AAAACXBIWXMAAAB4AAAAeACd9VpgAAAAB3RJTUUH4wEJBAc0dZBvGAAAFRZJREFUeNrtnXtwXFd9xz/n3Lu72tVKlmRJtmxHfiix8/AjTuo8WmcSk4ZMKCmQDjQwLUObkJRMmQ4tHUrKP7R0yjBtgWEo5VEgwwBJW2ImlCYkkBAyCXGwieNXbMeP+ClbL0srabWPe87pH2dX2tWupJUsae9K+/XIM7v3dfb8vud3fq9zLlRRRRVVVFFFFYsRYiYX3fWhB8vd7iqK4LkffGva10yLAEUEHwRagRYgCshyd8IiQgLoAbqAwdwD0yFCSQQoIvhrgXuAO4CrgSagptT7VTErSAMx4G1gF/BT4BUgmT2hFCJMKbBxwm8BHs78rSp3D1SRh0FgJ/BFYG/ugcmI4Ex2x3HCvwX4OvDnQH25f20VBQgBW4B3AXHgAKAATuz/7YQXTUiAccJ/APgasLncv7KKKbEEeCd2Wn4R8Do23TAhCUox2m4BPgusLPcvq6JkhICPAY+QmeYn8tyKEiDn5Bbgn6kKvxIRAD4N3DnZSVNpgIexln4VlYmlwKNAMxTXAgUEyDnpWiwBqqhs3AF8YKKDk2mAe5iGq2dm+bwqZg0CuA+oLXZwIgIEKVH1m8xNao3CNWZCARsjEMJQG0wTcBTaTBGCcA04psqY2cFmYF2xA+4EF7RiI3yTwgBXpkd4d7yHlSpJv3T5SaSZfcFoXoTJGEFzbZz7tx5gQ2sPQ8kgvzqxmueOdqB0PhFEUOOsTyBa0qBAnwuhToZAV4OMl4Eo1i0swEQEaJnoglw4wLvjPdw10ocSIA006jSfa1hLv3RHSSCE4T0bD/OezYfACBCGtU397O9s5Uz/EqTIDHMDcl0S59p45kKQzR4mLtHng9VA8xxgoikgio3tTwgD1BjFSpVECdAIlBCs8pIsVylMjrSCruLaZd2AsATQkrqaJK3ROCZXxUuQTWkraANowDWIRq/c/bRgISf5ftLxJoAUkn7pIo39LDEMSJcB6ZI7eXtKcmEwOvadMCQ9l1gihMibK8AMO/kPMUB80oh1FZcB93IuTgvBTyLNNOo0q7wkA9LlB9HlXHCCecxSWvL43o00RhJsWn6RoVSQnxzcwOlc9Q9gQB0LI2o0si2FUQL9dgh1rqr+5wqXRQAB7AtG+VzDWparFAPS5YITLDxPGE5fWsLnf7GdVQ0DDCZCnI/VoYzIl6sAMyRJ744i6hUogRl0qp7AHOKyCACWBP3S5ZIMAGbiOUUYYskgBy+0jn4WE91QCUyfO/a5ijnDZRMArIxECcNUYLVByTetYs5RLeFa5KgSYJGjSoBFjioBFjmqBFjkKPACqi734kIBASI1oXK3qYp5RAEBPvon95e7TVXMIZ769lfzPhcQoH1Vtf5zMaGAAFrrcrepinlE1QtY5JiVXIDfYXMQY+UFxoAytogFYxNTUoAUYykInTlvoWPBEkBgBeoZiKUlXSMOnSMOnXGHvqRDXAkSSqANhBxD2DEsCWqWh9XoX2NIEZKZ4qQFSoYFRwAprLD6UpKjAwFe7wtxZCBAT8IKXenJYx2OsIRYEtR0RD02NyW5tiHNiohHQFqtsJC4sGAIIAUklODApSC7uq3Qz8cdklrkTQGyhDRzUgkuxq22+HV3iKaQZn19mq1Lk2xrTtIU0guGCBVPAIFV8/suBXn6bIQ3+oIMe2JU2M4M6wqEGFs63ZuUvNwVYld3iJ/Vedy1Is72ZQnqAqbip4aKJoAU0J+S7DxVy3PnwwymxYRCz47YrBEIGYNP5HwW2eIW8opVBfaeBjgWczk5VM+e3hAfXDvEujpbsVypPKhIAgisFX+oP8gTJ2vZfymIoVDwWePNldBUIwgHoCUsWBmF+pAg7IIjYSQNcQ86hwydw4Z4GvqThhGvcNqQGcK81h3i1JDLfauHuW1ZglrXVCQJKo4AAhhRgidP1fLMuTCxlMxz38AKSAONNbBtueTO1ZJNzZL6EEQDgkjACj73Gm0g4UEsZUh4cKLf8MszmpfOas4OWlU/nggXRxy+dbSe3T0hHlw/SFtEVdyUUFEEEEBKW+E/eaoWZQqNOm1gWa3g7jWSe6+UXLNUUhsYc+NGp4IiRlyNC+GAtR/WNghub5eciRmeP6358VuKQ732ouz0IIXVRL/pCaGM4OENsYojQcUQICv8x0/W8tRpK/zxIzgg4R3tkke2umxsEbgZl9CbRnR7lBiZ+69ZInhgk8M9ayWPHVT86IimN2Hyphsp4Le9Qb56uJ5Hro6xooJIUBGh4Kza/++3rfC9ccI3wFWNgkdvdfmXHQGubxWjdsLlykFnooZtUcHfbnP50p0ud1whbUwgtyMF7OsL8rXD9ZwZdiumqLkiCKAMo2rfKzLy37lG8vW7A3z4OodowJ4/29AZ1b99peQrvx/gY1tdgjI/XCwFvNEX5BtH6oilZUWQwPcEkAIODwR55ly4qNp/R7vkM7e6rKm3Yd1SZZ+17scbkFNBGYgE4KHNDh+/0SUcKCTBgUtBnj0frgivwNcEEFg//4mTtcRSsqjw/+E2lxVRUdKoz8YIjIHBFJwfMpwdNPQlDJ4uPXBkDAQdeHCzw8dvcKlx80mggadOR9h3KVhS5LGc8LUR6BnYecr6+bkdaYC719qR31YrpjS4soGd0zHDMyc1R/oMp2OGnhHr3tUFYVWd4MoGwY52yeZWO8dPdl8DuAI+stFBAF/e45FQY4GkgZTk+8ejtIUHaA0r32YWfUsAKWx497mMKh1N0xpr8H3qZpeVJYx8Iax/v/MtxWP7FccHDEqPRf2yONhjeFbA44cV7+5weHCzw6o6MSUJAhL+9DqH/d2a/z2hRzWIFHBkIMDT58J8uGOo3N05cT+XuwETIaEET5+NMJjOX0EckPChax1W15cm/FgSPr/L4x9f8TjWbxekutKqepnzl/2uPwHfO6j4xPMeh3vNlFOCwcYPHr7epX0cYYSAFzvDnBx0fTsV+JIAWUPqjb581a8N3H6F5H1XOSWpVE/Ddw94/OCQIq1LywSKDCF2X9B84TWPC3GTv4lFEWgD1zUL/myTQ2Dc/hY2kVSDX+FLAmgDu7pDo1k9sEbWslrBI1td6oNTW/tSwE+PK769T+VNIaXClfCrM5p//Y0i4U19vTFw33qH21fJAs20ty9If8qfbqHvCCCASynJkYFAvtUP3L1GsrGlNNXfFTd8Z79iMH0ZK80FPH1C8fI5PaX2MEB9CO6/xsYisk2UAk4PuRzqD/hyGvAdAaSAo5lijmyHGWxi594rJW4JnSiBl85qDvdNPYdPBgEMp+CpY4qkmvp8reF3lku2tMo8WyCpBXt6Qng+9AR8RwDPwOt9IZI5+wJqY7N61yyVJcXYkwpePKNJlSC0KTtIwJ4L1m0sSQsE4V3rrBuZhQDeHAjSl3R8Nw34igACGEwXqn9Xwp2rbVZvKvkLYXP5R/qmFlhJbRLQlzAc7y/tfga4qU2yNCxGDVUpoCshfekN+IsAArpGHHoSzqjlbQw0hgSbmksb/QKIp63qnq2+TivoGSlNfxtgSQgaQ/lkTSnBySHXd+FhfxEA6Byx1buj1j8QDlgDq1RkS79mC9MpCzcGloQE6xryYwIGODvsony28MpXBDBAZ9zJ6ySDLeOKBkRJvr8Bwi4lTRelIpApKSsVQQnrm2RBXWFXwiGhha/sAH8RwEBf0skTnDGwMmozcKUI1BhoCAna60sjTCn3qw8J1jZMnXPIQgi4os7aLrkYSEninp/E7zMCKANxVdhB9SGBM42Whl24uU3OisGlDWxoErTXlU4oAzSFRb4nIGxFU1qLKSOL8wlfEUBjl2vlQmAFOp0+M8COdskV9aWP2okQcKxbV1dC9DG3AUFZ2GZbnuYj6eMzAmCKGFuCaY1+sPfoaBQ8sNkheBk7zSpj3c8/6HBmpcZvto3T2YCvCCCFIeTkd5Extm5/2jBw31UO71rnMJMtD5SBDY2Cv7qxtNxDHkTxsjRHgFvqTqnzBJ8RAMJOYQfFvemvzjVYw/Evb3C4eYVN0JRyD4PNIrZGBJ+8yeXqpulPIwJbcZRXjWzAEQZX+ksL+I4AS4L5w1UIu2InMYN3RmgDa5cIvnCHm1fgUUyg2oDS1n28Z53kX3e47GiXMyowNcC5QUN6nDtbF7DL0P3EAF9VBAlgeVjlJXAE0DlsiKUM4RJjAbnQBq6oEzx6i8sfX2148qjihdOa0zEzmuBxBCyvFdzUJrlvvWTbcknImXl1sdJwvD9/NZEBmkOKsKv9JH9/aQCwBMi1A7Kh3VJy8sXgZBaHXBw2XBg2RFzBslpBMLdwQ0BTjf2LJeHMoCGh7LXTfaYAhlLw1qXCQpIVEa8gNlBu+EoDaCwBlgQ1F+M2H5BN7pzoN6xtECWrT0dASsPeLs1TxzSvnrdr/Ea8zKvucoTraTjQY9jfo/jeQUVzWLCpVfCHHQ7bV0nqg6VvGSOEXV/YFc9/H4IrYE3UQ5J5pbdP4CsC2MSPoiPq0Rl3Rtfnj3jwyzOa29unrqoRAlIKfn5G8/QJxSvnDN2Zsq5s/V8xZL9XBi4MG86fMLx0RrOl1S4uvbdD0hIprQL5cJ+hd2RMAxigKaRZV+f5Sv2DzwgAEJKwuSnJr7vHsj8CW+BxJmZYs2RiIUgBvSOGL+9R/PgtxWDKaoLpxhFEZn1AQsGvz2te69T84pTk0VtcrmuenARpDT87qYmnx56rDXTUpVke9t+aQZ/NSHa0XNuQttuwZBsp4OygXaU7kQZwBJyKGT7zkscP31TEPRuLv5ywa3ZjCLBE+MTzaX5+So/W/hdrw9FLpqCEzBGwdWmKoOMz6eNDAmhjjaX19em80aIN/PgtxfmhwsIMKeBgr+FTL3o8+7b1vWY74OoIONZv+Ptfeex8SxUt70prePKo4uKwyatnWBZWbGlKlrtri8J3BACbft26NJlX/ycFHOo1PHZQ5aWLpYDXL2r++vk0v+mcunjzcuAIWxjy2Vc8/uuwKhjlr5zX7Dyq8rSOBrY0pmjzofoHnxLAGNjWnGRtnZffaQZ+dETzaqceddEGU/Dve9WslYBN2WHCunnf3KfY122fKTLE+MZexaUkecUsEdewrSXpu1Kw0d9T7gYUQ9ZqvmtFPM+AEwJ6E4b/3KcYStvPjx9WvHRGz6t/LTPrDL+026M/aTvx+4c0uzp1XhBLG9jalGJTY8qXox98SgCwWmD7sgQ3Lk3mdZ4j4NXzmu/ut/X6jx1QeSHX+YIj4OVzmh8espHFJw7nq3hjYFmN4r3tw9T40PjLwnduYBbZ2PkH1w5xasjl4sjYOoGUhv94w6MhJLgwPD+qvxiUgW/u8wg6gu54fjtcCe9bHWdDQ9q3ox98rAHAqtB1dR73rR4uqLMfyWzrVs6pVQCxFPSME742cGtrgh1tI75K/BSDrwmQxW3LElzflD8VjN/MsVwY3w5toC2ieP+aYSIVsHeg7wlggFrX8OD6QW5Y6l9jCqzwW2o0D64f5Ipaz9dtzcL3BABLgraI4uENMTY3+ZME2ljP5YH1MbY1+zPoUwwVQQAYU62PXB1ji89IkB35D22IcWtL0ldtmwoVQwDIhokVD20YZEtTavQNIOVuU1tE8RdXx/jd1mTZ2zNd+NYNnAjawKqIxyc3DvDs+TBPnY4wkJqdNQDTgclsQr19WYL3rxmumDl/PCqOAJBZhh3Q/NHqYa6qT/P941G7ongGFTwzebbOBHnetzrOjrYRIm7lvjegIgkAY6r/+qYUbeEBnj4X5sXOML1JO6vNtkbI7kAecQ1bm1K8t32YDQ3p4msZKggVS4AstIHWsOLDHUPc1prg5a4a9vYFOT3kjr4uZqZkyI52R8DyiGJLY4ptLUk2NaaocSp31Oei4gkAY7V6HfUeHfVD3JuUvDkQYE9PiDcHgnQlJCkl8jaLKggimfyVO66wbl1HXZqtS1NsaUrSFlajL6VaCMKHBUKALLJCaQhqfq81yc0tSfqSDicHXU4OuZwddulKOAykJCk9trewI+yijbqAoTmkWBHxWBP1WFfnsTysRit5FpLgs1hQBMjCwOjG0s0hRWuN4qaWJEpDQgvinl2l62mR2fLVrtgJO4awa1PLkrEpYKEJPRcLkgC5yJIBrNqPOIaIU1izn31JRPZtIn4q3Z5LLHgCjEd2MPt18+b5hi8IIOYxrWemkPx8b+BS7nxhWQkghCDtecRHElMKZraeVxuuwXWL7zVsMAx5g3hmBitRZ4CQDBFxastKgrIRQAhBf2yQF17dzdkLXfP23PVr27n9phsJBQMFx17v381Lvc+TNuk51wQGQ51bz47mu1gfvWbefv94lI0AWmte3XuA/UeOzesUsHv/mzQ3NnDjxmtGtY5A0JW6yAs9z9KX6p239vSlevl599OsDLcTdaJl0QRlywam0h6dXd0gBGIe/5RSnL/YnTflCCHoTl4k5g0ghUTM0z8pJMPeMCldvvqBshHAGIMukymujSmwOTzjzYsdMkFvlOm5FVYPMLvwQUGhD7CICVAFVAmw6FElwCJHlQCLHFUCLHJUCbDIsYgJUE0HQhkJUO51fePDvWV7jYMY/a8smIgACWAmWzSXDNd1qauNYGayk/NlYkldtIAASwINBGVwXuPxxhgcHBzhXP7NZoiJkkE9QAyon7MHOw43b9lIfCTBxZ4+tJnbpd52c0jB6pXL2bThyrxj2mhW1KxiW+Ot7Ol/jbROzWFLxhAN1HFL03aiTt18EE+U9OXrh48B1AH/B2yf0xYJQXxkhO5L/XiemnMCBFyXlqZGwjWhInF/gTIeXckLxNXwnItDIGgINLI02DzHTwLsYH4nsGvr1fnkn0gDDAK7mGMCGGOIhGtYE26bH6MgkwQqnvQxOMJhZc0V8zYlG2Pma8p5GzhZ7MBk9QA/BR7CaoM57IRMWZRPivQ0eiE6CM8ARatuCozAHBXxCrCz3C2v4rJxHPjORAcncwOTwBeB0+X+BVXMGAr4CnAY8gb3KIoSIOfEvcA/YclQReXhf4BvT3ZCKYGgx4CvM8dxgSpmHb8EPoU16IuOfpiEADkXJIG/Az4N9Jb7V1UxJRTwBPAR4NRUJ5caCh4B/g24H3iBhWgnLwwcB/4G+Cg5wp9o9EOJHm8mOJRFM/AB4D5gMxAt969e5Ehj/fxnsNb+4dyDkwkfphHyGEcCgFpgHdBU7h5YxBBY7XyScX7+VILPvcG0UIQIVfgIpQq+iiqqqKKKKqpY3Ph/FhJTfpqtS3gAAAAldEVYdGRhdGU6Y3JlYXRlADIwMTktMDEtMDlUMDQ6MDc6NTIrMDg6MDDmJdXEAAAAJXRFWHRkYXRlOm1vZGlmeQAyMDE5LTAxLTA5VDA0OjA3OjUyKzA4OjAwl3hteAAAAEN0RVh0c29mdHdhcmUAL3Vzci9sb2NhbC9pbWFnZW1hZ2ljay9zaGFyZS9kb2MvSW1hZ2VNYWdpY2stNy8vaW5kZXguaHRtbL21eQoAAABjdEVYdHN2Zzpjb21tZW50ACBHZW5lcmF0b3I6IEFkb2JlIElsbHVzdHJhdG9yIDE5LjAuMCwgU1ZHIEV4cG9ydCBQbHVnLUluIC4gU1ZHIFZlcnNpb246IDYuMDAgQnVpbGQgMCkgIM5IkAsAAAAYdEVYdFRodW1iOjpEb2N1bWVudDo6UGFnZXMAMaf/uy8AAAAYdEVYdFRodW1iOjpJbWFnZTo6SGVpZ2h0ADY3NUX13/0AAAAXdEVYdFRodW1iOjpJbWFnZTo6V2lkdGgANjc11gSPoAAAABl0RVh0VGh1bWI6Ok1pbWV0eXBlAGltYWdlL3BuZz+yVk4AAAAXdEVYdFRodW1iOjpNVGltZQAxNTQ2OTc4MDcyLcwqugAAABJ0RVh0VGh1bWI6OlNpemUAMzg5NzBCydxh/AAAAGJ0RVh0VGh1bWI6OlVSSQBmaWxlOi8vL2hvbWUvd3d3cm9vdC9uZXdzaXRlL3d3dy5lYXN5aWNvbi5uZXQvY2RuLWltZy5lYXN5aWNvbi5jbi9maWxlcy8xMjEvMTIxMDEyMy5wbmdtcQiSAAAAAElFTkSuQmCC;" parent="1" vertex="1">
          <mxGeometry x="266" y="271" width="49" height="49" as="geometry" />
        </mxCell>
        <mxCell id="e5k0GmYDkn366S63yn-u-46" value="" style="shape=image;verticalLabelPosition=bottom;labelBackgroundColor=#ffffff;verticalAlign=top;aspect=fixed;imageAspect=0;image=data:image/png,iVBORw0KGgoAAAANSUhEUgAAAJEAAAB/CAQAAABFn+haAAAABGdBTUEAALGPC/xhBQAAACBjSFJNAAB6JgAAgIQAAPoAAACA6AAAdTAAAOpgAAA6mAAAF3CculE8AAAAAmJLR0QAAKqNIzIAAAAJcEhZcwAAAGQAAABkAA+Wxd0AAAAHdElNRQfjAQkDFTgBnUVlAAADKElEQVR42u2cMWtTURiG35ukIJWKVmkFRSmI4GCpODi5iFVEKKKis7jXyUkXcXVydRdcLA5iB3+BBUdB7SLSqSBUKBib5Do45ZyDrzVfTJXn6fYNb06e03u4l+/LrbQm+CWV6lEvYafTGPUCdj4osqDIgiILiiwosqDIgiILiiwosqDIgiILiiwosqDIgiJLK6t09ETvAtQ1dEuzSe2llgOSezqp22r21db1WBuqBkyudUCL2puX+/++6fzAX0KSKj3Psu+FJEuX1E6S32sqJPmIPqerLu1pc9vBJVqFPY26rPMVVoXr4c9WPbRF/8egyIIiC4osKLKgyIIiC4osKLKgyIIiC4osKLKgyIIiC4osKLKgyIIiC4osKLKgyIIiy/AU/e0fTsR8XiGlVajc0dWQhvVcVlvQ4ZCG9dFs3VN6pM2AhvUe7UuL/EzGwllkQZEFRRYUWVBkQZEFRZb81rGrZX0KuXWc10xSW9FKyK3jjC4mORt6EXTreEW783I663hh4C8hSU0tZdn3Q5Kly9ms4wcdDEme+b1Zx0H34ifDSy7nxBwZhWTOIguKLCiyoMiCIguKLCiyoMiCIguKLCiyoMiCIguKLCiyoMiCIguKLCiyoMiCIguKLCiylBT1QpI7hfm3mGSpm1VqdYaUXGhYN3VTcyEN6+NZ7azuhjSsT2QvVpnUor4GNKz3ayItMuto4SyyoMiCIguKLCiyoMiCIkt+69jTW60HzJNVmtN0Uvuo1YDkWlM6lWzupt6oHZA8rjPalX6R9Naxret6NfArAGuN6akWkuoDPQx4uWBHC3qmsb7aqua1NvA10dUxvdah/mJpwVvqlp5Vtkmv8ETWDUmWtrKNrdXWVkDy9/xpY3hnUdTo58g/j+PagiILiiwosqDIgiILiiwosqDIgiILiiwosqDIgiILiiwosqDIgiILiiwosqDIgiJLSVFEp6vU6/oXZh0LKXmrsaFzmgz472qmXU1Js7oRMut4OkuZ0DV9CZh1nNZ4WqyKe12HdN4bWUpUcpUpqsNmNrMtZBzUwnFtQZEFRRYUWVBkQZGlpfVRL2Gn8wMi9bOMXP9EugAAACV0RVh0ZGF0ZTpjcmVhdGUAMjAxOS0wMS0wOVQwMzoyMTo1NiswODowMDprPgkAAAAldEVYdGRhdGU6bW9kaWZ5ADIwMTktMDEtMDlUMDM6MjE6NTYrMDg6MDBLNoa1AAAAQ3RFWHRzb2Z0d2FyZQAvdXNyL2xvY2FsL2ltYWdlbWFnaWNrL3NoYXJlL2RvYy9JbWFnZU1hZ2ljay03Ly9pbmRleC5odG1svbV5CgAAACV0RVh0c3ZnOmNvbW1lbnQAIEdlbmVyYXRlZCBieSBJY29Nb29uLmlvIDDLy0gAAAAYdEVYdFRodW1iOjpEb2N1bWVudDo6UGFnZXMAMaf/uy8AAAAYdEVYdFRodW1iOjpJbWFnZTo6SGVpZ2h0ADYyNE+FGy4AAAAXdEVYdFRodW1iOjpJbWFnZTo6V2lkdGgANzExhvGGCAAAABl0RVh0VGh1bWI6Ok1pbWV0eXBlAGltYWdlL3BuZz+yVk4AAAAXdEVYdFRodW1iOjpNVGltZQAxNTQ2OTc1MzE2jNcvoQAAABF0RVh0VGh1bWI6OlNpemUAMjc4OUKbYmRYAAAAYnRFWHRUaHVtYjo6VVJJAGZpbGU6Ly8vaG9tZS93d3dyb290L25ld3NpdGUvd3d3LmVhc3lpY29uLm5ldC9jZG4taW1nLmVhc3lpY29uLmNuL2ZpbGVzLzExNS8xMTU4MjUwLnBuZ9/a5pAAAAAASUVORK5CYII=;" parent="1" vertex="1">
          <mxGeometry x="437" y="275" width="50" height="44" as="geometry" />
        </mxCell>
        <mxCell id="e5k0GmYDkn366S63yn-u-47" value="" style="shape=flexArrow;endArrow=classic;html=1;width=14.285714285714286;endSize=10.668571428571429;" parent="1" edge="1">
          <mxGeometry width="50" height="50" relative="1" as="geometry">
            <mxPoint x="318" y="298.5" as="sourcePoint" />
            <mxPoint x="423.5" y="299.5" as="targetPoint" />
          </mxGeometry>
        </mxCell>
        <mxCell id="e5k0GmYDkn366S63yn-u-48" value="修改分析维度" style="text;html=1;" parent="1" vertex="1">
          <mxGeometry x="327" y="260" width="93" height="30" as="geometry" />
        </mxCell>
        <mxCell id="e5k0GmYDkn366S63yn-u-49" value="" style="shape=flexArrow;endArrow=classic;html=1;width=14.285714285714286;endSize=10.668571428571429;" parent="1" edge="1">
          <mxGeometry width="50" height="50" relative="1" as="geometry">
            <mxPoint x="461.5" y="320" as="sourcePoint" />
            <mxPoint x="461.5" y="390" as="targetPoint" />
          </mxGeometry>
        </mxCell>
        <mxCell id="e5k0GmYDkn366S63yn-u-50" value="修改后&lt;br&gt;的分析&lt;br&gt;维度" style="text;html=1;" parent="1" vertex="1">
          <mxGeometry x="479" y="327" width="41" height="55" as="geometry" />
        </mxCell>
        <mxCell id="e5k0GmYDkn366S63yn-u-59" value="&lt;table border=&quot;1&quot; width=&quot;100%&quot; style=&quot;width: 100% ; height: 100% ; border-collapse: collapse ; font-size: 1px&quot;&gt;&lt;tbody style=&quot;font-size: 1px&quot;&gt;&lt;tr style=&quot;font-size: 1px&quot;&gt;&lt;td align=&quot;center&quot; style=&quot;font-size: 1px&quot;&gt;维度1&lt;/td&gt;&lt;td align=&quot;center&quot; style=&quot;font-size: 1px&quot;&gt;维度2&lt;br&gt;&lt;/td&gt;&lt;td align=&quot;center&quot; style=&quot;font-size: 1px&quot;&gt;其他维度&lt;br&gt;&lt;/td&gt;&lt;/tr&gt;&lt;tr style=&quot;font-size: 1px&quot;&gt;&lt;td align=&quot;center&quot; style=&quot;font-size: 1px&quot;&gt;-&lt;/td&gt;&lt;td align=&quot;center&quot; style=&quot;font-size: 1px&quot;&gt;-&lt;/td&gt;&lt;td align=&quot;center&quot; style=&quot;font-size: 1px&quot;&gt;-&lt;/td&gt;&lt;/tr&gt;&lt;tr style=&quot;font-size: 1px&quot;&gt;&lt;td align=&quot;center&quot; style=&quot;font-size: 1px&quot;&gt;-&lt;/td&gt;&lt;td align=&quot;center&quot; style=&quot;font-size: 1px&quot;&gt;-&lt;/td&gt;&lt;td align=&quot;center&quot; style=&quot;font-size: 1px&quot;&gt;-&lt;/td&gt;&lt;/tr&gt;&lt;/tbody&gt;&lt;/table&gt;" style="text;html=1;strokeColor=none;fillColor=none;overflow=fill;fontSize=1;align=center;" parent="1" vertex="1">
          <mxGeometry x="395" y="390" width="127" height="34" as="geometry" />
        </mxCell>
      </root>
    </mxGraphModel>
  </diagram>
</mxfile>
